<svg width="28" height="28" viewBox="0 0 28 28" fill="none" xmlns="http://www.w3.org/2000/svg">
<path d="M25.9622 8.93661C24.5914 5.73902 22.2621 3.41351 19.0395 2.03836C17.4289 1.35107 15.7415 1 13.9786 1C12.2161 1 10.5411 1.34775 8.93225 2.03836C5.73642 3.40985 3.39672 5.73388 2.02352 8.93661C1.33541 10.5412 1 12.2222 1 13.9857C1 15.7496 1.33541 17.4446 2.02352 19.0494C3.39672 22.2522 5.73672 24.5902 8.93225 25.962C10.5414 26.6526 12.216 27 13.9786 27C15.7412 27 17.4289 26.6489 19.0393 25.962C22.2618 24.5868 24.5912 22.2467 25.9623 19.0494C26.6524 17.4394 27 15.7496 27 13.9857C27 12.2222 26.6527 10.5466 25.9622 8.93661ZM23.887 19.7322C22.8665 21.4833 21.4684 22.8724 19.7076 23.8995C17.9575 24.9206 16.0399 25.4355 13.9789 25.4355C12.4295 25.4355 10.9511 25.137 9.54363 24.5252C8.13619 23.9138 6.92099 23.11 5.90444 22.0932C4.88789 21.0761 4.07879 19.8484 3.47378 18.4377C2.87056 17.0322 2.57823 15.5363 2.57823 13.9858C2.57823 11.9233 3.08467 10.0144 4.09944 8.26819C5.11781 6.51558 6.51616 5.12492 8.26449 4.1008C10.0125 3.07672 11.9177 2.56451 13.9786 2.56451C16.0399 2.56451 17.9572 3.07974 19.7073 4.1008C21.4681 5.12794 22.8632 6.51856 23.8867 8.26814C24.9102 10.0174 25.4218 11.9233 25.4218 13.9857C25.4218 16.0482 24.9135 17.9701 23.887 19.7322Z" fill="#12E8A8" stroke="#12E8A8" stroke-width="0.5"/>
<path d="M14.8037 13.8722V6.5045C14.8037 6.06362 14.4198 5.70801 13.9791 5.70801C13.567 5.70801 13.1973 6.06362 13.1973 6.5045V13.9859C13.1973 14.0002 13.2258 14.0573 13.2258 14.0998C13.1973 14.3558 13.2686 14.5692 13.439 14.74L17.6896 18.9927C17.974 19.2773 18.4999 19.2773 18.7841 18.9927C19.111 18.6656 19.0895 18.191 18.7841 17.8833L14.8037 13.8722Z" fill="#12E8A8" stroke="#12E8A8" stroke-width="0.5"/>
</svg>
