<svg width="88" height="104" viewBox="0 0 88 104" fill="none" xmlns="http://www.w3.org/2000/svg">
<circle cx="44" cy="59.9995" r="44" fill="#F2F4FF"/>
<path d="M43.8656 87.0129C43.4798 87.5444 42.6982 87.6658 42.1723 87.2759L17.9771 69.3423C17.4512 68.9524 17.331 68.1627 17.7169 67.6313L42.135 33.9973C42.5208 33.4658 43.3024 33.3444 43.8284 33.7343L63.8157 48.549C64.0411 48.7161 64.2865 49.0148 64.2714 49.3539L65.3926 56.7245C65.4326 56.9878 65.3624 57.4029 65.197 57.6306L43.8656 87.0129Z" fill="white"/>
<path d="M43.8656 87.0129C43.4798 87.5444 42.6982 87.6658 42.1723 87.2759L17.9771 69.3423C17.4512 68.9524 17.331 68.1627 17.7169 67.6313L42.135 33.9973C42.5208 33.4658 43.3024 33.3444 43.8284 33.7343L63.8157 48.549C64.0411 48.7161 64.2865 49.0148 64.2714 49.3539L65.3926 56.7245C65.4326 56.9878 65.3624 57.4029 65.197 57.6306L43.8656 87.0129Z" stroke="#4D20FF" stroke-width="1.5" stroke-miterlimit="10" stroke-linejoin="round"/>
<path d="M40.7109 49.1733L55.4384 60.0894" stroke="#4550E5" stroke-width="1.5" stroke-miterlimit="10" stroke-linecap="round" stroke-linejoin="round"/>
<path d="M44.1562 47.29L50.468 51.9684" stroke="#4550E5" stroke-width="1.5" stroke-miterlimit="10" stroke-linecap="round" stroke-linejoin="round"/>
<path d="M38.6152 52.0586L53.3427 62.9747" stroke="#4550E5" stroke-width="1.5" stroke-miterlimit="10" stroke-linecap="round" stroke-linejoin="round"/>
<path d="M36.5215 54.9434L51.2489 65.8595" stroke="#4550E5" stroke-width="1.5" stroke-miterlimit="10" stroke-linecap="round" stroke-linejoin="round"/>
<path d="M34.377 57.896L49.1044 68.8121" stroke="#4550E5" stroke-width="1.5" stroke-miterlimit="10" stroke-linecap="round" stroke-linejoin="round"/>
<path d="M32.2344 60.8486L46.9618 71.7647" stroke="#4550E5" stroke-width="1.5" stroke-miterlimit="10" stroke-linecap="round" stroke-linejoin="round"/>
<path d="M30.0898 63.8013L41.2328 72.0605" stroke="#4550E5" stroke-width="1.5" stroke-miterlimit="10" stroke-linecap="round" stroke-linejoin="round"/>
<path d="M61.3256 52.7754C60.9949 53.2309 61.095 53.889 61.621 54.2789L65.4531 57.1193C65.4331 56.9877 65.5433 56.8358 65.5233 56.7042L64.4022 49.3336C64.3822 49.202 64.3621 49.0704 64.2119 48.959L61.4007 52.8311L61.3256 52.7754Z" fill="#D6DAFF" stroke="#4D20FF" stroke-width="1.5" stroke-miterlimit="10" stroke-linejoin="round"/>
<path d="M38.1452 37.2384C34.5447 32.4406 32.0759 33.6058 29.1312 29.9243C28.7933 29.5876 28.3886 29.3286 27.9448 29.165C26.6836 28.544 25.366 28.7238 24.0495 28.9789L23.8093 29.0255C23.0932 29.1617 22.4014 28.6823 22.2605 27.9517L20.2484 17.3505C20.1117 16.6191 20.579 15.9148 21.2941 15.774L24.5828 15.1367C24.6475 15.1242 24.7112 15.1049 24.7747 15.0857C24.9944 15.0233 25.1921 14.8991 25.3459 14.7278C25.9142 14.1363 26.5801 13.6516 27.3132 13.2954C29.3212 12.2881 31.5256 11.7512 33.772 10.9379C35.0905 10.4478 36.3213 9.74295 37.4175 8.85068L44.2824 3.28216C44.7172 2.9517 45.2663 2.81855 45.8018 2.91352C46.337 3.00855 46.8117 3.32316 47.1147 3.78424C47.6839 4.72673 47.4442 5.95491 46.5659 6.5971L40.2093 11.6552C40.1622 11.6976 40.1513 11.7683 40.1832 11.8241C40.2149 11.8796 40.2806 11.9046 40.3401 11.8839L54.6463 5.9451C55.1455 5.72857 55.7109 5.73127 56.2095 5.95318C56.7081 6.1748 57.0965 6.59575 57.2831 7.11711C57.6271 8.16866 57.1089 9.30835 56.1017 9.71578L51.0858 11.9519L41.4653 16.1104C41.3899 16.1432 41.35 16.228 41.3721 16.309C41.3942 16.3896 41.4715 16.4416 41.5527 16.4302L55.9353 13.8699C56.6329 13.747 57.3429 14.0135 57.7983 14.5689C58.2538 15.1244 58.3854 15.8844 58.1433 16.563C57.9014 17.2413 57.3224 17.735 56.6251 17.8578L42.3877 20.6167L46.2611 21.9268C47.8231 22.4527 48.9093 23.9063 48.9923 25.5811L49.0338 26.473C49.0678 27.1956 48.9871 27.9188 48.7947 28.6145L47.538 33.0482C47.4084 33.5217 47.0913 33.9174 46.6631 34.1413C46.2349 34.3651 45.7339 34.3965 45.2804 34.2278C44.2526 33.8389 43.7224 32.6769 44.0942 31.6272L44.9059 28.4269C44.9666 28.1532 44.9701 27.8695 44.9159 27.5939C44.8749 27.3729 44.7982 27.1601 44.6887 26.9647C44.2958 26.2518 43.5346 25.8339 42.7369 25.8936L38.0791 26.2603C37.6224 26.2824 37.1685 26.3449 36.7225 26.4474C35.9061 26.5849 35.2615 27.2258 35.1055 28.055C34.9499 28.8842 35.3158 29.7271 36.0233 30.1689C36.3016 30.3361 36.5902 30.4845 36.8876 30.6128C39.0851 31.5608 40.2369 34.0853 40.4884 35.4104C40.7399 36.7356 39.2807 38.7563 38.1452 37.2384Z" fill="white"/>
<path d="M38.1457 37.2385C34.5452 32.4408 32.0765 33.6059 29.1318 29.9245C28.7939 29.5878 28.3892 29.3288 27.9453 29.1651C26.6842 28.5441 25.3666 28.724 24.0501 28.9791L23.8099 29.0256C23.0938 29.1619 22.4019 28.6824 22.2611 27.9519L21.8838 25.9641C22.0246 26.6946 22.7166 27.1743 23.4326 27.0378L23.6728 26.9913C24.9893 26.7361 26.3069 26.5563 27.5681 27.1776C28.012 27.3412 28.4166 27.5999 28.7546 27.937C31.6993 31.6184 34.168 30.4529 37.7685 35.251C38.7059 36.5048 39.8647 35.346 40.0969 34.1608C40.2701 34.5624 40.4014 34.9813 40.489 35.4106C40.7405 36.7357 39.2813 38.7564 38.1457 37.2385Z" fill="#A4C2F7"/>
<path d="M38.0808 26.2615C37.6242 26.2836 37.1703 26.3461 36.7243 26.4486C36.0002 26.5534 35.4008 27.0726 35.1823 27.7848C34.7087 27.231 34.5651 26.4598 34.8069 25.7695C35.0484 25.0797 35.638 24.5789 36.3471 24.461C36.7931 24.3586 37.2469 24.2958 37.7035 24.2737L42.3614 23.9069C43.1591 23.8476 43.9202 24.2652 44.3132 24.978C44.4227 25.1738 44.4993 25.3863 44.5404 25.6072C44.5945 25.8829 44.5912 26.1669 44.5304 26.4403L44.476 26.6502C44.0485 26.1283 43.4019 25.847 42.7387 25.8947L38.0808 26.2615Z" fill="#A4C2F7"/>
<path d="M46.1969 34.3053C45.891 34.3639 45.5747 34.3375 45.2813 34.2286C44.2628 33.8462 43.7307 32.7006 44.0871 31.6573C44.3052 31.921 44.5869 32.1221 44.904 32.2408C45.3575 32.4095 45.8585 32.3782 46.2867 32.1543C46.715 31.9308 47.032 31.5347 47.1617 31.0615L48.4183 26.6276C48.6108 25.9321 48.6915 25.209 48.6574 24.486L48.6389 24.105C48.8496 24.5695 48.9698 25.0714 48.9931 25.5819L49.0347 26.4739C49.0687 27.1965 48.988 27.9196 48.7956 28.6154L47.5389 33.049C47.3643 33.6961 46.8436 34.1834 46.1969 34.3053Z" fill="#A4C2F7"/>
<path d="M37.4174 8.85022C36.3212 9.74249 35.0904 10.4473 33.772 10.9374C31.5255 11.7507 29.3211 12.2876 27.3131 13.2949C26.58 13.6511 25.9141 14.1358 25.3458 14.7274C25.1921 14.8987 24.9943 15.0229 24.7746 15.0852C24.7112 15.1044 24.6474 15.1237 24.5827 15.1363L21.294 15.7735C20.5789 15.9143 20.1117 16.6187 20.2483 17.35L20.6256 19.3379C20.489 18.6065 20.9562 17.9021 21.6713 17.7614L24.96 17.1241C25.0247 17.1115 25.0885 17.0923 25.1519 17.0731C25.3715 17.0104 25.5694 16.8865 25.723 16.7149C26.2914 16.1237 26.9573 15.639 27.6904 15.2828C29.6984 14.2754 31.9027 13.7382 34.1493 12.9252C35.4676 12.4349 36.6985 11.7303 37.7947 10.8381L44.6596 5.26923C45.4769 4.64798 46.6261 4.76836 47.308 5.54689C47.5193 4.96194 47.4476 4.30856 47.1146 3.78378C46.8116 3.3227 46.337 3.00809 45.8018 2.91307C45.2663 2.8181 44.7171 2.95124 44.2824 3.28171L37.4174 8.85022Z" fill="white"/>
<path d="M57.2835 7.11766C57.0968 6.59631 56.7084 6.17535 56.2098 5.95374C55.7112 5.73182 55.1458 5.72912 54.6467 5.94565" fill="white"/>
<path d="M37.0059 8.32382L43.7168 2.87979L43.8705 2.75536L44.6954 3.81214L44.5415 3.93724L37.8304 9.38066L37.0059 8.32382Z" fill="white"/>
<path d="M43.8732 2.7584L43.8726 2.75506L43.7186 2.87956L43.2024 3.29844C43.0178 3.44804 42.9262 3.68717 42.9612 3.92534C42.9966 4.16376 43.154 4.36533 43.3738 4.45419C43.5935 4.54305 43.8428 4.50544 44.0271 4.35589L44.5436 3.93695L44.6838 3.82267C44.9703 3.60301 45.3336 3.51406 45.6874 3.57662C46.0465 3.6388 46.365 3.84908 46.568 4.15816C46.9421 4.80704 46.7646 5.63826 46.1605 6.06569L39.7982 11.1312C39.5661 11.3161 39.4551 11.6184 39.5103 11.9143C39.5284 12.0079 39.562 12.0973 39.6096 12.1796C39.8092 12.5271 40.2303 12.67 40.5924 12.5131L54.9066 6.56767C55.24 6.4235 55.6172 6.42557 55.9498 6.574C56.2824 6.72243 56.5412 7.00404 56.6649 7.35238C56.883 8.06828 56.5206 8.83188 55.8365 9.09903L50.8267 11.3323L41.2129 15.4889C40.8222 15.654 40.6184 16.0947 40.7414 16.5092C40.8594 16.9184 41.2608 17.1717 41.6713 17.0963L56.0519 14.5354C56.398 14.4743 56.7542 14.5569 57.0414 14.7647C57.3337 14.9663 57.5299 15.2836 57.5826 15.6388C57.6467 15.9895 57.57 16.3509 57.3694 16.642C57.1657 16.939 56.8525 17.1393 56.5011 17.197L42.2625 19.9562C42.2352 19.9652 42.2084 19.9764 42.1828 19.9892C42.1395 20.0023 42.0979 20.0198 42.0583 20.0417C41.9895 20.0896 41.9269 20.1457 41.8715 20.209C41.8446 20.2475 41.8219 20.2884 41.8033 20.3316C41.788 20.3563 41.7744 20.3819 41.7618 20.4082C41.7582 20.4199 41.7609 20.431 41.7576 20.4427C41.7427 20.5311 41.7372 20.6208 41.7413 20.7103C41.7436 20.7224 41.7389 20.7334 41.7412 20.7455C41.7502 20.7737 41.7613 20.8011 41.7743 20.8275C41.787 20.8719 41.8043 20.9144 41.8262 20.9548C41.8482 20.9915 41.8741 21.0257 41.9031 21.0569C41.9293 21.0896 41.9588 21.1197 41.9909 21.1462C42.0282 21.1742 42.0687 21.1978 42.111 21.2163C42.135 21.2324 42.1602 21.2467 42.1865 21.2589L46.0611 22.5687C47.3589 23.0131 48.2614 24.2225 48.3354 25.6163L48.3784 26.501C48.4099 27.1505 48.3387 27.8005 48.1681 28.426L46.9065 32.8665C46.8266 33.1594 46.6303 33.4043 46.3649 33.5422C46.0996 33.6804 45.7894 33.6987 45.5093 33.5933C45.1724 33.4614 44.9009 33.1973 44.7557 32.8604C44.6107 32.5231 44.6039 32.1414 44.7373 31.8001L45.5577 28.5727C45.738 27.7173 45.5106 26.824 44.9445 26.1639C44.3781 25.5039 43.5402 25.1553 42.6854 25.2241L38.0307 25.5896L38.0236 25.591C37.6603 25.6019 37.2989 25.6459 36.9435 25.7226L36.6237 25.7846C35.5342 25.9479 34.6686 26.798 34.4664 27.9029C34.2401 29.0168 34.7303 30.1579 35.6879 30.7462C35.9927 30.9331 36.3102 31.097 36.6378 31.2373C38.5299 32.0537 39.6068 34.3084 39.8401 35.5374C39.906 36.1425 39.6408 36.7341 39.1497 37.0774C39.0732 37.1121 38.9296 37.1776 38.6702 36.831C37.2944 34.92 35.4696 33.3929 33.3652 32.3903C31.9208 31.7347 30.6451 30.7439 29.6402 29.4975C29.3032 29.1219 28.8855 28.8318 28.4201 28.65L28.2307 28.5587C26.7853 27.8464 25.3095 28.049 23.9241 28.3175L23.6839 28.364C23.3258 28.4334 22.9791 28.1931 22.9097 27.8273L20.8976 17.226C20.8281 16.8602 21.0622 16.5073 21.4203 16.4379L24.709 15.8007C24.7336 15.7959 24.7563 15.7874 24.7807 15.7811C24.7896 15.7794 24.7977 15.7835 24.8069 15.7817C25.202 15.6998 25.5606 15.4919 25.8313 15.1873C26.3429 14.6552 26.9435 14.2205 27.6048 13.9034C28.9521 13.2719 30.344 12.744 31.769 12.3242C32.5022 12.0868 33.2462 11.8464 33.9953 11.5748C35.3808 11.0604 36.6749 10.3204 37.8268 9.38304L44.0271 4.35589C44.3123 4.12453 44.3586 3.70047 44.1311 3.4084C43.9033 3.1164 43.4876 3.06708 43.2024 3.29844L37.0063 8.32321C35.9668 9.16991 34.7992 9.8386 33.549 10.3038C32.8154 10.5695 32.0859 10.8052 31.3664 11.0381C29.8779 11.4771 28.4243 12.0302 27.0179 12.6926C26.2224 13.0779 25.4995 13.6032 24.8831 14.2447C24.8525 14.2619 24.8237 14.282 24.7968 14.3044C24.7029 14.395 24.5846 14.4547 24.4569 14.4757L21.1688 15.1128C20.0943 15.321 19.392 16.3797 19.6003 17.4774L21.6125 28.0787C21.8208 29.1763 22.8609 29.8974 23.9354 29.6891L24.1756 29.6426C25.3936 29.4066 26.5771 29.2392 27.6595 29.7728L27.8654 29.87C28.1447 29.9741 28.4005 30.1349 28.617 30.3429C29.7376 31.7317 31.1548 32.8407 32.7594 33.5841C34.6899 34.4961 36.3627 35.8955 37.6182 37.6497C38.0575 38.362 38.9394 38.6423 39.6939 38.3094C40.7423 37.7056 41.3159 36.5042 41.1373 35.286C40.8407 33.7237 39.5323 31.0242 37.1435 29.9928C36.8751 29.8794 36.6149 29.7462 36.3651 29.5943C35.8845 29.3006 35.6402 28.7269 35.7586 28.1697C35.8531 27.6216 36.2809 27.1981 36.8205 27.1181C36.9401 27.0999 37.064 27.0759 37.1931 27.0509C37.4852 26.9839 37.7835 26.9466 38.083 26.9388C38.0914 26.9372 38.0991 26.9357 38.1071 26.9342C38.1148 26.9327 38.1245 26.9383 38.1338 26.9372L42.7885 26.5716C43.3293 26.5307 43.8455 26.8127 44.1129 27.2955C44.2763 27.5883 44.3312 27.9312 44.2679 28.2613L43.4728 31.3996C42.9775 32.7977 43.6845 34.3462 45.0542 34.8628C45.6795 35.0986 46.3718 35.0578 46.9643 34.7506C47.557 34.4433 47.9961 33.8975 48.1766 33.244L49.4347 28.8003C49.6448 28.0335 49.7321 27.2365 49.6929 26.44L49.6498 25.5512C49.5477 23.599 48.2837 21.9056 46.4654 21.2848L45.0151 20.796L56.7397 18.524C57.4306 18.4043 58.0452 18.0082 58.4477 17.4233C58.8502 16.8387 59.0071 16.1133 58.8837 15.408C58.7686 14.7011 58.3767 14.0714 57.7982 13.664C57.2237 13.2486 56.5116 13.0841 55.8197 13.2066L45.7261 15.004L51.3517 12.5721L56.3609 10.3389C57.6868 9.78635 58.3614 8.27675 57.9034 6.88754C57.6546 6.19428 57.1385 5.63423 56.4756 5.33818C55.8127 5.04243 55.0607 5.03627 54.3958 5.32172L43.6324 9.79039L46.9622 7.14016C48.1296 6.28724 48.4369 4.64975 47.6625 3.4096C47.2578 2.79529 46.6247 2.37615 45.911 2.25031C45.197 2.12454 44.4651 2.30251 43.8857 2.74339C43.8806 2.74721 43.8785 2.75391 43.8732 2.7584Z" fill="#4D20FF"/>
<path d="M63.3145 93.7085C63.3145 94.9815 54.445 96 43.6475 96C32.7214 96 23.9805 94.9815 23.9805 93.7085C23.9805 92.4354 32.8499 91.417 43.6475 91.417C54.5736 91.417 63.3145 92.4354 63.3145 93.7085Z" fill="#D6DAFF"/>
</svg>
