<svg width="27" height="27" viewBox="0 0 27 27" fill="none" xmlns="http://www.w3.org/2000/svg">
<path d="M1.82529 10.5956C2.08011 10.6702 2.34694 10.5235 2.42097 10.2683C3.84502 5.37739 8.40123 1.96155 13.5012 1.96155C14.3176 1.96155 15.1291 2.04663 15.9195 2.21542C15.9022 2.90722 16.2008 3.38177 16.393 3.68657C16.4464 3.77119 16.519 3.88658 16.5276 3.90241C16.5276 5.62647 16.1752 5.90721 16.1791 5.90817C15.3997 5.90817 14.1209 6.6043 13.6401 7.50191C13.3449 8.05241 13.3689 8.63508 13.7069 9.14276C13.9387 9.49037 14.1382 9.87686 14.3315 10.2509C14.7401 11.0423 15.1935 11.9201 15.9055 11.9201C16.056 11.9201 16.2185 11.8807 16.3944 11.7928C16.955 11.5125 17.3569 10.7154 17.7454 9.94515C17.9165 9.6057 18.168 9.10766 18.317 8.94945C18.805 9.01582 19.0434 9.45713 19.366 10.1562C19.6035 10.6706 19.8492 11.2019 20.3319 11.4432C21.1444 11.8495 23.816 11.424 25.2924 10.7971C25.5131 10.7033 25.6309 10.461 25.5684 10.2293C24.5593 6.4985 21.8184 3.39518 18.2358 1.92831C17.9901 1.82735 17.7088 1.94516 17.6084 2.1908C17.5079 2.43644 17.6257 2.71724 17.8714 2.8177C21.0449 4.11768 23.5031 6.80758 24.5199 10.0658C23.0238 10.5932 21.1036 10.7518 20.7618 10.5831C20.581 10.4927 20.3993 10.0999 20.2391 9.75325C19.904 9.02732 19.4449 8.03308 18.2728 7.98114C17.6671 7.94457 17.3257 8.64172 16.8868 9.5124C16.6291 10.023 16.2401 10.7946 15.93 10.947C15.7517 10.9052 15.3974 10.2192 15.1858 9.80954C14.9901 9.43071 14.7685 9.00134 14.507 8.60955C14.3651 8.39704 14.3593 8.19512 14.4877 7.95573C14.818 7.33937 15.8089 6.86966 16.1791 6.86966C17.0483 6.86966 17.4891 5.8716 17.4891 3.90235C17.4891 3.62257 17.3454 3.39467 17.2069 3.17399C17.0031 2.85139 16.793 2.51729 16.9175 1.94707C16.9728 1.69371 16.8171 1.44176 16.5656 1.37832C15.57 1.12738 14.5387 1 13.5012 1C7.97626 1 3.0402 4.70097 1.4979 9.99997C1.42336 10.2548 1.57046 10.5216 1.82529 10.5956Z" fill="#12E8A8" stroke="#12E8A8" stroke-width="0.5"/>
<path d="M19.2685 13.7507C19.1296 13.7901 18.9397 13.8449 18.8892 13.8488C18.2248 13.8488 17.8036 14.3632 17.4964 14.7387C17.3791 14.8819 17.1671 15.1391 17.032 15.143C16.8147 15.0343 16.5863 14.9796 16.3531 14.9796C15.7863 14.9796 15.2955 15.3166 15.1858 15.782C15.1084 16.1089 15.2224 16.5565 15.7728 16.832C16.5536 17.2223 17.3608 17.6257 17.7199 17.9848C17.9671 18.232 18.3945 18.3738 18.893 18.3738C19.6502 18.3738 20.6569 18.006 21.0026 16.9685C21.1391 16.5598 21.4656 16.2473 21.7814 15.9454C22.1478 15.5939 22.4944 15.2627 22.4992 14.7872C22.5026 14.5064 22.3781 14.2382 22.13 13.9896C21.792 13.6521 21.3319 13.4805 20.7617 13.4805C20.2146 13.4805 19.6675 13.6368 19.2685 13.7507ZM21.5377 14.7742C21.5151 14.8689 21.2757 15.0982 21.1166 15.2506C20.7536 15.5977 20.3021 16.03 20.0906 16.6646C19.8531 17.3761 19.0512 17.4122 18.893 17.4122C18.6127 17.4122 18.4368 17.3381 18.4002 17.3054C17.93 16.8352 17.0911 16.4156 16.2026 15.9718C16.2007 15.9709 16.1992 15.9704 16.1973 15.9694C16.2877 15.9324 16.455 15.93 16.6021 16.003C16.7574 16.0809 16.917 16.1203 17.0756 16.1203C17.6078 16.1203 17.9439 15.7098 18.2401 15.3477C18.4569 15.0838 18.6805 14.8103 18.8891 14.8103C19.0598 14.8103 19.2584 14.7535 19.5324 14.6752C19.8964 14.5713 20.3492 14.442 20.7617 14.442C21.0718 14.442 21.2969 14.5165 21.4497 14.6694C21.5165 14.7367 21.5348 14.7742 21.5377 14.7742Z" fill="#12E8A8" stroke="#12E8A8" stroke-width="0.5"/>
<path d="M25.8807 11.7708C25.8441 11.5073 25.598 11.3242 25.3389 11.3602C25.0759 11.3968 24.8917 11.6396 24.9283 11.9025C25.0014 12.4309 25.0384 12.9689 25.0384 13.5006C25.0384 19.817 19.9374 24.9636 13.6385 25.0381C11.9288 23.9463 10.3265 22.6088 11.0404 20.9434C12.3221 17.9516 11.1294 16.8367 10.6197 16.3598L10.524 16.2689C10.3783 16.1237 10.2139 16.0247 10.0692 15.9377C9.71731 15.7266 9.6226 15.6699 9.81151 15.103C9.93653 14.7266 10.1028 14.5511 10.2947 14.3478C10.7394 13.8775 11.0793 13.4098 11.0793 12.0502C11.0793 11.2588 10.6778 10.6276 9.97783 10.3184C9.18405 9.96749 8.12396 10.0915 7.56343 10.6002C7.21345 10.9185 7.09564 11.3517 7.24083 11.7877C7.5836 12.8141 6.80042 14.2978 5.33699 15.3953C4.94949 15.6857 4.8341 15.5525 4.76486 15.4732C4.33555 14.9785 4.36873 13.5713 4.72108 13.2194C4.95715 12.9833 5.02735 12.6819 4.90858 12.4132C4.51916 11.53 2.03502 11.5983 1.54227 11.6214C1.30812 11.6324 1.11583 11.8103 1.08699 12.043C1.02592 12.5401 1 12.9762 1 13.5007C1 19.2651 4.90334 24.255 10.4918 25.6357C10.7486 25.6997 11.0101 25.542 11.0735 25.2843C11.1375 25.0266 10.9798 24.766 10.7221 24.7026C5.56393 23.4279 1.96155 18.8212 1.96155 13.5006C1.96155 13.1669 1.9731 12.8722 1.99857 12.5718C2.81201 12.5708 3.5029 12.665 3.85531 12.7727C3.30385 13.6338 3.36442 15.3265 4.03847 16.1035C4.52164 16.6602 5.22262 16.6833 5.91397 16.1645C7.76107 14.7794 8.63992 12.9415 8.15292 11.4838C8.13754 11.4362 8.12216 11.3915 8.21061 11.3112C8.46352 11.0814 9.10726 10.9843 9.58897 11.1977C9.94475 11.3549 10.1178 11.6338 10.1178 12.0502C10.1178 13.1353 9.89906 13.367 9.59618 13.6872C9.37166 13.9251 9.09188 14.2208 8.89908 14.7992C8.4669 16.0978 9.16016 16.5141 9.57454 16.7627C9.68176 16.8266 9.78272 16.8872 9.84424 16.9487C9.87934 16.9838 9.91923 17.0213 9.96301 17.0622C10.3861 17.4573 11.1726 18.1934 10.1568 20.5641C9.00484 23.2521 11.975 25.1261 13.2433 25.9266C13.3202 25.9746 13.4092 26.0006 13.5 26.0006C20.3923 26.0006 26 20.3929 26 13.5006C25.9999 12.9246 25.96 12.3428 25.8807 11.7708Z" fill="#12E8A8" stroke="#12E8A8" stroke-width="0.5"/>
<path d="M13.8687 20.4795C13.2687 20.4795 12.5649 21.1699 12.3082 21.7896C12.1077 22.2737 12.1673 22.7251 12.4721 23.0299C12.7591 23.3169 13.1851 23.4818 13.6409 23.4818C14.0967 23.4818 14.5226 23.3169 14.8101 23.0299C15.1293 22.7107 15.2072 22.2415 15.0293 21.7093C14.9096 21.3497 14.6721 20.9694 14.3952 20.6919C14.2576 20.555 14.0706 20.4795 13.8687 20.4795ZM14.1302 22.3497C13.9168 22.5632 13.362 22.5574 13.1543 22.355C13.1476 22.3343 13.148 22.2141 13.2754 22.0035C13.4413 21.73 13.6754 21.5367 13.8023 21.468C13.9389 21.63 14.0572 21.8329 14.1172 22.0132C14.1706 22.1723 14.1754 22.305 14.1302 22.3497Z" fill="#12E8A8" stroke="#12E8A8" stroke-width="0.5"/>
</svg>
