<svg width="88" height="89" viewBox="0 0 88 89" fill="none" xmlns="http://www.w3.org/2000/svg">
<circle cx="44" cy="45" r="44" fill="#F2F4FF"/>
<path d="M69 69.0597C69 70.1045 68.1034 71 67.0575 71H18.9425C17.8966 71 17 70.1045 17 69.0597V2.9403C17 1.89552 17.8966 1 18.9425 1H58.6897C59.1379 1 59.7356 1.14926 60.0345 1.59702L68.4023 9.95522C68.7011 10.2537 69 10.8507 69 11.2985V69.0597Z" fill="white"/>
<path d="M69 69.0597C69 70.1045 68.1034 71 67.0575 71H18.9425C17.8966 71 17 70.1045 17 69.0597V2.9403C17 1.89552 17.8966 1 18.9425 1H58.6897C59.1379 1 59.7356 1.14926 60.0345 1.59702L68.4023 9.95522C68.7011 10.2537 69 10.8507 69 11.2985V69.0597Z" stroke="#4550E5" stroke-width="1.5" stroke-miterlimit="10" stroke-linejoin="round"/>
<path d="M59.4375 8.76087C59.4375 9.65639 60.1846 10.4027 61.2306 10.4027H68.8513C68.7019 10.2534 68.7019 9.9549 68.5524 9.80564L60.1846 1.44743C60.0352 1.29818 59.8858 1.14893 59.5869 1.14893V8.76087H59.4375Z" fill="#F2F4FF" stroke="#4550E5" stroke-width="1.5" stroke-miterlimit="10" stroke-linejoin="round"/>
<path d="M67.5699 66.0999C67.2591 67.1906 66.6377 67.3464 66.1716 66.2557L59.18 49.2712C58.7139 48.1805 59.18 47.713 60.2676 48.1805L77.2028 55.1924C78.2903 55.6599 78.2903 56.2832 77.0474 56.5948L71.6095 57.9972C70.5219 58.3088 69.2789 59.5554 68.9682 60.6462L67.5699 66.0999Z" fill="white" stroke="#4550E5" stroke-width="1.5" stroke-miterlimit="10" stroke-linejoin="round"/>
<rect x="25" y="21" width="25" height="2" rx="1" fill="#4550E5"/>
<rect x="25.75" y="27.75" width="34.5" height="4.5" rx="1.25" fill="#F2F4FF" stroke="#4550E5" stroke-width="1.5"/>
<rect x="25" y="40" width="25" height="2" rx="1" fill="#4550E5"/>
<rect x="25.75" y="46.75" width="34.5" height="4.5" rx="1.25" fill="#F2F4FF" stroke="#4550E5" stroke-width="1.5"/>
</svg>
