<svg width="24" height="28" viewBox="0 0 24 28" fill="none" xmlns="http://www.w3.org/2000/svg">
<path d="M22.9718 7.69451C22.9583 6.99255 22.9455 6.32941 22.9455 5.68788C22.9455 5.18528 22.5353 4.77781 22.0291 4.77781C18.1098 4.77781 15.1257 3.65928 12.6384 1.25768C12.2826 0.914044 11.7163 0.914166 11.3606 1.25768C8.87355 3.65928 5.89 4.77781 1.97096 4.77781C1.46484 4.77781 1.05452 5.18528 1.05452 5.68788C1.05452 6.32953 1.04181 6.99291 1.02825 7.69499C0.902635 14.2276 0.73059 23.1742 11.6994 26.9498C11.7966 26.9833 11.898 27 11.9995 27C12.1009 27 12.2024 26.9833 12.2996 26.9498C23.2692 23.1741 23.0974 14.2272 22.9718 7.69451ZM11.9996 25.1242C2.59242 21.7306 2.73465 14.2966 2.86088 7.7297C2.86845 7.33558 2.87578 6.95359 2.88092 6.57913C6.55155 6.42527 9.48683 5.3207 11.9996 3.14698C14.5126 5.3207 17.4483 6.42539 21.1192 6.57913C21.1243 6.95347 21.1317 7.33521 21.1393 7.72909C21.2654 14.2962 21.4075 21.7305 11.9996 25.1242Z" fill="#12E8A8" stroke="#12E8A8" stroke-width="0.3"/>
<path d="M15.1563 10.8388L10.7331 15.231L8.84564 13.3566C8.48774 13.0013 7.90745 13.0013 7.54967 13.3566C7.19178 13.7121 7.19178 14.2883 7.54967 14.6437L10.0851 17.1615C10.264 17.3392 10.4986 17.428 10.7331 17.428C10.9676 17.428 11.2022 17.3392 11.3811 17.1615L16.4522 12.1258C16.8102 11.7704 16.8102 11.1942 16.4523 10.8389C16.0945 10.4835 15.5142 10.4834 15.1563 10.8388Z" fill="#12E8A8" stroke="#12E8A8" stroke-width="0.3"/>
</svg>
