<svg width="88" height="88" viewBox="0 0 88 88" fill="none" xmlns="http://www.w3.org/2000/svg">
<circle cx="44" cy="44" r="44" fill="#F2F4FF"/>
<path d="M79.25 8.25L67.75 45.75L53.5 38.9564L42.5 51L39.75 31L23 27.25L79.25 8.25Z" fill="white"/>
<path d="M79.25 8.25L67.75 45.75L53.5 38.9564M79.25 8.25L39.75 31M79.25 8.25L23 27.25L39.75 31M46.25 35.5L68.5 17M46.25 35.5L42.5 51M46.25 35.5L53.5 38.9564M42.5 51L53.5 38.9564M42.5 51L39.75 31" stroke="#4550E5" stroke-width="1.5" stroke-linecap="round" stroke-linejoin="round"/>
<path d="M52.5 39.25L46.75 36.25L43.3418 49.2499L52.5 39.25Z" fill="#C1CBFF"/>
<path d="M40 31.404L42.3749 49.5L45.75 35.25L75 11L40 31.404Z" fill="#7A59FF" fill-opacity="0.66"/>
<path d="M18.1984 29.0452C14.9614 30.1573 11.3925 31.1996 8.88949 32.0782" stroke="#12E8A8" stroke-width="1.5" stroke-linecap="round" stroke-linejoin="round"/>
<path d="M24.6486 48.531C20.2491 50.9995 14.6487 54.1348 10.9991 56.3315" stroke="#12E8A8" stroke-width="1.5" stroke-linecap="round" stroke-linejoin="round"/>
<path d="M37.4446 41.8034C36.3456 42.2959 32.3579 44.6539 30.5014 45.7713" stroke="#12E8A8" stroke-width="1.5" stroke-linecap="round" stroke-linejoin="round"/>
<path d="M66.335 49.5C64.5004 54.5 62.2504 61.25 60.5004 66.5" stroke="#12E8A8" stroke-width="1.5" stroke-linecap="round" stroke-linejoin="round"/>
<path d="M51.163 49.4468C47.9222 54.0795 43.7797 60.3953 40.5578 65.3076" stroke="#12E8A8" stroke-width="1.5" stroke-linecap="round" stroke-linejoin="round"/>
<path d="M37.7097 70.4997C36.4123 72.3543 34.754 74.8826 33.4642 76.8491" stroke="#12E8A8" stroke-width="1.5" stroke-linecap="round" stroke-linejoin="round"/>
</svg>
