<svg width="518" height="518" viewBox="0 0 518 518" fill="none" xmlns="http://www.w3.org/2000/svg">
<path d="M259 518C402.042 518 518 402.042 518 259C518 115.958 402.042 0 259 0C115.958 0 0 115.958 0 259C0 402.042 115.958 518 259 518Z" fill="#F0F2FF"/>
<path d="M392.383 462.964C392.383 469.439 347.706 474.619 293.316 474.619C238.278 474.619 194.248 469.439 194.248 462.964C194.248 456.489 238.926 451.309 293.316 451.309C348.353 451.309 392.383 456.489 392.383 462.964Z" fill="#D6DAFF"/>
<path d="M322.454 413.754C317.274 423.466 304.971 426.704 295.906 421.524L209.789 374.256C200.076 369.076 196.839 356.774 202.019 347.709L308.856 153.459C314.036 143.746 326.339 140.509 335.404 145.689L420.874 192.956C430.586 198.136 433.824 210.439 428.644 219.504L322.454 413.754Z" fill="white" stroke="#4550E5" stroke-width="4" stroke-miterlimit="10" stroke-linecap="round" stroke-linejoin="round"/>
<path d="M298.704 171.068L211.205 330.599L332.131 396.924L419.63 237.392L298.704 171.068Z" fill="#D6DAFF"/>
<path d="M220.793 312.743L414.395 234.395L298.493 170.94L220.793 312.743Z" fill="white"/>
<path d="M298.704 171.068L211.205 330.599L332.131 396.924L419.63 237.392L298.704 171.068Z" stroke="#4550E5" stroke-width="4" stroke-miterlimit="10" stroke-linecap="round" stroke-linejoin="round"/>
<path d="M385.906 196.193L390.439 198.135" stroke="#4550E5" stroke-width="4" stroke-miterlimit="10" stroke-linecap="round" stroke-linejoin="round"/>
<path d="M345.115 174.178L372.958 189.718" stroke="#4550E5" stroke-width="4" stroke-miterlimit="10" stroke-linecap="round" stroke-linejoin="round"/>
<path d="M83.5254 97.7738C83.5254 90.0038 89.3529 84.1763 97.1229 84.1763H246.048C253.818 84.1763 259.645 90.0038 259.645 97.7738V202.669C259.645 210.439 253.818 216.266 246.048 216.266H198.78V231.159C198.78 234.396 196.838 236.986 194.248 238.281C191.01 239.576 187.773 238.929 185.83 236.339L165.11 215.619H97.1229C89.3529 215.619 83.5254 209.791 83.5254 202.021V97.7738Z" fill="white" stroke="#4550E5" stroke-width="4" stroke-miterlimit="10" stroke-linejoin="round"/>
<path d="M235.688 130.796C261.436 130.796 282.308 109.923 282.308 84.1757C282.308 58.4281 261.436 37.5557 235.688 37.5557C209.941 37.5557 189.068 58.4281 189.068 84.1757C189.068 109.923 209.941 130.796 235.688 130.796Z" fill="white"/>
<path d="M235.688 130.796C261.436 130.796 282.308 109.923 282.308 84.1757C282.308 58.4281 261.436 37.5557 235.688 37.5557C209.941 37.5557 189.068 58.4281 189.068 84.1757C189.068 109.923 209.941 130.796 235.688 130.796Z" stroke="#4550E5" stroke-width="4" stroke-miterlimit="10" stroke-linecap="round" stroke-linejoin="round"/>
<path d="M114.607 130.796H189.07" stroke="#4550E5" stroke-width="4" stroke-miterlimit="10" stroke-linecap="round" stroke-linejoin="round"/>
<path d="M114.607 154.753H216.265" stroke="#4550E5" stroke-width="4" stroke-miterlimit="10" stroke-linecap="round" stroke-linejoin="round"/>
<path d="M114.607 178.063H216.265" stroke="#4550E5" stroke-width="4" stroke-miterlimit="10" stroke-linecap="round" stroke-linejoin="round"/>
<path d="M266.122 380.731C266.122 382.674 264.179 384.616 262.237 384.616C260.294 384.616 258.352 382.674 258.352 380.731C258.352 378.789 260.294 376.846 262.237 376.846C264.179 376.846 266.122 378.789 266.122 380.731Z" fill="white" stroke="#4550E5" stroke-width="4" stroke-miterlimit="10" stroke-linejoin="round"/>
<path d="M254.069 75.2233C254.048 74.1678 254.028 73.1707 254.028 72.2061C254.028 71.4503 253.401 70.8377 252.626 70.8377C246.629 70.8377 242.063 69.1558 238.256 65.5447C237.712 65.028 236.845 65.0282 236.301 65.5447C232.495 69.1558 227.93 70.8377 221.933 70.8377C221.159 70.8377 220.531 71.4503 220.531 72.2061C220.531 73.1709 220.511 74.1683 220.49 75.224C220.298 85.0466 220.035 98.499 236.819 104.176C236.968 104.226 237.124 104.252 237.279 104.252C237.434 104.252 237.589 104.226 237.738 104.176C254.524 98.4988 254.261 85.046 254.069 75.2233Z" fill="#12E8A8"/>
<path d="M223.295 75.2762C223.306 74.6836 223.318 74.1092 223.325 73.5462C228.942 73.3148 233.434 71.6539 237.279 68.3855C241.124 71.6539 245.617 73.315 251.234 73.5462C251.242 74.109 251.253 74.683 251.265 75.2753M254.069 75.2233C254.048 74.1678 254.028 73.1707 254.028 72.2061C254.028 71.4503 253.401 70.8377 252.626 70.8377C246.629 70.8377 242.063 69.1558 238.256 65.5447C237.712 65.028 236.845 65.0282 236.301 65.5447C232.495 69.1558 227.93 70.8377 221.933 70.8377C221.159 70.8377 220.531 71.4503 220.531 72.2061C220.531 73.1709 220.511 74.1683 220.49 75.224C220.298 85.0466 220.035 98.499 236.819 104.176C236.968 104.226 237.124 104.252 237.279 104.252C237.434 104.252 237.589 104.226 237.738 104.176C254.524 98.4988 254.261 85.046 254.069 75.2233Z" stroke="#12E8A8" stroke-width="0.3"/>
<path d="M242.109 79.951L235.341 86.5553L232.452 83.7369C231.905 83.2027 231.017 83.2027 230.469 83.7369C229.922 84.2715 229.922 85.1378 230.469 85.6722L234.349 89.4581C234.623 89.7252 234.982 89.8588 235.341 89.8588C235.699 89.8588 236.058 89.7252 236.332 89.4581L244.092 81.8863C244.64 81.3519 244.64 80.4854 244.092 79.9512C243.545 79.4168 242.657 79.4166 242.109 79.951Z" fill="white" stroke="white" stroke-width="0.3"/>
</svg>
