<svg width="88" height="98" viewBox="0 0 88 98" fill="none" xmlns="http://www.w3.org/2000/svg">
<path d="M44 98.0005C68.3005 98.0005 88 78.301 88 54.0005C88 29.7 68.3005 10.0005 44 10.0005C19.6995 10.0005 0 29.7 0 54.0005C0 78.301 19.6995 98.0005 44 98.0005Z" fill="#F0F2FF"/>
<path d="M68.3145 89.7085C68.3145 90.9815 59.445 92 48.6475 92C37.7214 92 28.9805 90.9815 28.9805 89.7085C28.9805 88.4354 37.8499 87.417 48.6475 87.417C59.5736 87.417 68.3145 88.4354 68.3145 89.7085Z" fill="#D6DAFF"/>
<path d="M54.4325 80.0329C53.4042 81.9425 50.9619 82.579 49.1623 81.5605L32.0661 72.2673C30.138 71.2488 29.4953 68.83 30.5236 67.0477L51.7331 28.8562C52.7615 26.9466 55.2038 26.3101 57.0034 27.3285L73.971 36.6218C75.8991 37.6402 76.5418 40.059 75.5135 41.8413L54.4325 80.0329Z" fill="white" stroke="#4550E5" stroke-width="1.5" stroke-miterlimit="10" stroke-linecap="round" stroke-linejoin="round"/>
<path d="M49.716 32.319L32.3457 63.6846L56.3521 76.7247L73.7224 45.3591L49.716 32.319Z" fill="#D6DAFF"/>
<path d="M34.25 60.1738L72.6842 44.7699L49.6751 32.2939L34.25 60.1738Z" fill="white"/>
<path d="M49.716 32.319L32.3457 63.6846L56.3521 76.7247L73.7224 45.3591L49.716 32.319Z" stroke="#4550E5" stroke-width="1.5" stroke-miterlimit="10" stroke-linecap="round" stroke-linejoin="round"/>
<path d="M67.0293 37.2598L67.9291 37.6417" stroke="#4550E5" stroke-width="1.5" stroke-miterlimit="10" stroke-linecap="round" stroke-linejoin="round"/>
<path d="M58.9316 32.9297L64.459 35.985" stroke="#4550E5" stroke-width="1.5" stroke-miterlimit="10" stroke-linecap="round" stroke-linejoin="round"/>
<path d="M7 17.9088C7 16.3811 8.15688 15.2354 9.69939 15.2354H39.2642C40.8067 15.2354 41.9636 16.3811 41.9636 17.9088V38.5322C41.9636 40.0599 40.8067 41.2056 39.2642 41.2056H29.8806V44.1336C29.8806 44.7702 29.4949 45.2794 28.9808 45.534C28.3381 45.7886 27.6953 45.6613 27.3097 45.1521L23.1964 41.0783H9.69939C8.15688 41.0783 7 39.9326 7 38.4049V17.9088Z" fill="white" stroke="#4550E5" stroke-width="1.5" stroke-miterlimit="10" stroke-linejoin="round"/>
<path d="M37.2082 24.4013C42.3196 24.4013 46.4632 20.2975 46.4632 15.2353C46.4632 10.1731 42.3196 6.06934 37.2082 6.06934C32.0968 6.06934 27.9531 10.1731 27.9531 15.2353C27.9531 20.2975 32.0968 24.4013 37.2082 24.4013Z" fill="white"/>
<path d="M37.2082 24.4013C42.3196 24.4013 46.4632 20.2975 46.4632 15.2353C46.4632 10.1731 42.3196 6.06934 37.2082 6.06934C32.0968 6.06934 27.9531 10.1731 27.9531 15.2353C27.9531 20.2975 32.0968 24.4013 37.2082 24.4013Z" stroke="#4550E5" stroke-miterlimit="10" stroke-linecap="round" stroke-linejoin="round"/>
<path d="M37.209 9.88867V14.4717" stroke="#4550E5" stroke-miterlimit="10" stroke-linecap="round" stroke-linejoin="round"/>
<path d="M37.2085 19.1813C37.3371 19.1813 37.4656 19.3086 37.4656 19.4359C37.4656 19.5632 37.3371 19.6905 37.2085 19.6905C37.08 19.6905 36.9514 19.5632 36.9514 19.4359C36.9514 19.3086 37.08 19.1813 37.2085 19.1813ZM37.2085 17.9082C36.3087 17.9082 35.666 18.5447 35.666 19.4359C35.666 20.327 36.3087 20.9635 37.2085 20.9635C38.1083 20.9635 38.751 20.327 38.751 19.4359C38.751 18.5447 38.1083 17.9082 37.2085 17.9082Z" fill="#4550E5"/>
<path d="M13.1719 24.4023H27.9543" stroke="#4550E5" stroke-width="1.5" stroke-miterlimit="10" stroke-linecap="round" stroke-linejoin="round"/>
<path d="M13.1719 29.1113H33.3531" stroke="#4550E5" stroke-width="1.5" stroke-miterlimit="10" stroke-linecap="round" stroke-linejoin="round"/>
<path d="M13.1719 33.6943H33.3531" stroke="#4550E5" stroke-width="1.5" stroke-miterlimit="10" stroke-linecap="round" stroke-linejoin="round"/>
<path d="M43.2495 73.5421C43.2495 73.9241 42.8639 74.306 42.4783 74.306C42.0927 74.306 41.707 73.9241 41.707 73.5421C41.707 73.1602 42.0927 72.7783 42.4783 72.7783C42.8639 72.7783 43.2495 73.1602 43.2495 73.5421Z" fill="white" stroke="#4550E5" stroke-width="1.5" stroke-miterlimit="10" stroke-linejoin="round"/>
<path d="M48.8188 7.85373C48.8053 7.13507 48.7923 6.45616 48.7923 5.79937C48.7923 5.28482 48.3783 4.86766 47.8674 4.86766C43.912 4.86766 40.9005 3.72253 38.3902 1.26381C38.0311 0.912 37.4597 0.912124 37.1007 1.26381C34.5907 3.72253 31.5796 4.86766 27.6244 4.86766C27.1137 4.86766 26.6996 5.28482 26.6996 5.79937C26.6996 6.45629 26.6867 7.13544 26.673 7.85422C26.5463 14.5422 26.3726 23.7016 37.4425 27.5669C37.5407 27.6012 37.643 27.6184 37.7454 27.6184C37.8477 27.6184 37.9502 27.6012 38.0483 27.5669C49.119 23.7015 48.9456 14.5418 48.8188 7.85373Z" fill="#12E8A8"/>
<path d="M28.5226 7.88975C28.5302 7.48626 28.5376 7.09519 28.5428 6.71182C32.2473 6.5543 35.2096 5.42346 37.7455 3.19804C40.2817 5.42346 43.2445 6.55443 46.9492 6.71182C46.9544 7.09507 46.9618 7.48589 46.9694 7.88913M48.8188 7.85373C48.8053 7.13507 48.7923 6.45616 48.7923 5.79937C48.7923 5.28482 48.3783 4.86766 47.8674 4.86766C43.912 4.86766 40.9005 3.72253 38.3902 1.26381C38.0311 0.912 37.4597 0.912124 37.1007 1.26381C34.5907 3.72253 31.5796 4.86766 27.6244 4.86766C27.1137 4.86766 26.6996 5.28482 26.6996 5.79937C26.6996 6.45629 26.6867 7.13544 26.673 7.85422C26.5463 14.5422 26.3726 23.7016 37.4425 27.5669C37.5407 27.6012 37.643 27.6184 37.7454 27.6184C37.8477 27.6184 37.9502 27.6012 38.0483 27.5669C49.119 23.7015 48.9456 14.5418 48.8188 7.85373Z" stroke="#12E8A8" stroke-width="0.3"/>
<path d="M40.9281 11.0717L36.4642 15.5683L34.5593 13.6494C34.1981 13.2857 33.6124 13.2857 33.2514 13.6494C32.8902 14.0134 32.8902 14.6032 33.2514 14.9671L35.8102 17.5448C35.9908 17.7267 36.2275 17.8176 36.4642 17.8176C36.7008 17.8176 36.9376 17.7267 37.1181 17.5448L42.2359 12.3893C42.5973 12.0255 42.5973 11.4355 42.2361 11.0718C41.875 10.7079 41.2893 10.7078 40.9281 11.0717Z" fill="white" stroke="white" stroke-width="0.3"/>
</svg>
