<svg width="173" height="27" viewBox="0 0 173 27" fill="none" xmlns="http://www.w3.org/2000/svg">
<path fill-rule="evenodd" clip-rule="evenodd" d="M81.6531 0.66975V4.35337H75.1388V22.7563H70.5143V4.35337H64V0.66975H81.6531ZM90.4522 22.7563C90.0528 22.7563 89.748 22.7005 89.5381 22.5888C89.3281 22.4772 89.1565 22.2438 89.0234 21.8886L88.6854 20.8992C88.2859 21.2443 87.8993 21.5462 87.5254 21.8049C87.1515 22.0637 86.7623 22.2819 86.3577 22.4594C85.9532 22.637 85.523 22.7715 85.0672 22.8628C84.6114 22.9542 84.1069 22.9998 83.5538 22.9998C82.8573 22.9998 82.2223 22.9085 81.6487 22.7258C81.0751 22.5432 80.5809 22.2717 80.1661 21.9115C79.7513 21.5512 79.4312 21.1022 79.2059 20.5644C78.9805 20.0265 78.8678 19.4075 78.8678 18.7073C78.8678 18.1289 79.0164 17.553 79.3134 16.9797C79.6104 16.4063 80.12 15.8837 80.8421 15.4119C81.5642 14.94 82.527 14.5468 83.7305 14.2322C84.934 13.9176 86.4422 13.74 88.2552 13.6994V12.8927C88.2552 11.9083 88.0452 11.1853 87.6253 10.7236C87.2053 10.2619 86.601 10.031 85.8123 10.031C85.2285 10.031 84.742 10.0995 84.3528 10.2365C83.9635 10.3735 83.623 10.5207 83.3311 10.6779C83.0391 10.8352 82.7652 10.9824 82.5091 11.1194C82.253 11.2564 81.956 11.3249 81.618 11.3249C81.3209 11.3249 81.0726 11.2513 80.8728 11.1041C80.6731 10.957 80.5067 10.782 80.3735 10.579L79.6207 9.2395C80.5528 8.40738 81.5821 7.78584 82.7088 7.37486C83.8355 6.96387 85.0544 6.75838 86.3654 6.75838C87.3077 6.75838 88.1502 6.9106 88.8928 7.21503C89.6354 7.51946 90.2653 7.94313 90.7825 8.48603C91.2998 9.02894 91.6967 9.67585 91.9732 10.4268C92.2498 11.1777 92.3881 11.9997 92.3881 12.8927V22.7563H90.4522ZM112.179 7.1237L112.241 0.0618418H116.189V7.15415H127.436V22.7563H123.211V10.0767H116.189V18.2659C116.189 18.7023 116.294 19.0473 116.504 19.301C116.714 19.5547 117.014 19.6815 117.403 19.6815C117.608 19.6815 117.782 19.6587 117.926 19.613C118.069 19.5673 118.192 19.5166 118.294 19.4608C118.397 19.405 118.491 19.3542 118.579 19.3086C118.666 19.2629 118.755 19.2401 118.847 19.2401C118.97 19.2401 119.073 19.268 119.155 19.3238C119.237 19.3796 119.319 19.4735 119.401 19.6054L120.676 21.6147C120.092 22.0713 119.431 22.4163 118.694 22.6497C117.956 22.8831 117.193 22.9998 116.405 22.9998C115.688 22.9998 115.053 22.8958 114.499 22.6878C113.946 22.4797 113.48 22.1829 113.101 21.7973C112.722 21.4117 112.436 20.9449 112.241 20.3969C112.046 19.8489 111.949 19.2299 111.949 18.5399V10.0767H107.65L105.474 12.7861C105.115 13.2631 104.7 13.6385 104.229 13.9125C104.465 14.0749 104.67 14.2626 104.844 14.4757C105.018 14.6888 105.187 14.9273 105.351 15.1911L110.252 22.7563H106.442C106.114 22.7563 105.832 22.703 105.597 22.5964C105.361 22.4899 105.166 22.2996 105.013 22.0256L101.448 16.2567C101.305 16.0131 101.156 15.8558 101.003 15.7848C100.849 15.7137 100.619 15.6782 100.311 15.6782H99.4203V22.7563H95.1799V0.0608863H99.4203V12.9383H100.127C100.393 12.9383 100.603 12.9003 100.757 12.8242C100.911 12.7481 101.064 12.6085 101.218 12.4056L104.721 7.83912C104.895 7.60572 105.092 7.42813 105.312 7.30636C105.533 7.18459 105.812 7.1237 106.15 7.1237H112.179ZM84.395 20.1686C85.0915 20.1686 85.7009 20.0443 86.2233 19.7957C86.7457 19.5471 87.2629 19.164 87.7751 18.6464V16.211C86.7406 16.2516 85.8802 16.3378 85.1939 16.4698C84.5077 16.6017 83.9623 16.7666 83.5577 16.9645C83.1531 17.1623 82.8663 17.3907 82.6973 17.6494C82.5283 17.9082 82.4438 18.1898 82.4438 18.4942C82.4438 19.1031 82.6154 19.5344 82.9585 19.7881C83.3016 20.0418 83.7804 20.1686 84.395 20.1686ZM128.096 2.57245C128.096 2.91747 128.025 3.24473 127.881 3.55424C127.738 3.86375 127.546 4.13266 127.305 4.36098C127.065 4.58931 126.783 4.77197 126.46 4.90896C126.138 5.04596 125.792 5.11445 125.423 5.11445C125.075 5.11445 124.745 5.04596 124.432 4.90896C124.12 4.77197 123.846 4.58931 123.61 4.36098C123.375 4.13266 123.188 3.86375 123.049 3.55424C122.911 3.24473 122.842 2.91747 122.842 2.57245C122.842 2.21728 122.911 1.88494 123.049 1.57543C123.188 1.26593 123.375 0.994478 123.61 0.761079C123.846 0.52768 124.12 0.342486 124.432 0.205491C124.745 0.0684965 125.075 0 125.423 0C125.792 0 126.138 0.0684965 126.46 0.205491C126.783 0.342486 127.065 0.52768 127.305 0.761079C127.546 0.994478 127.738 1.26593 127.881 1.57543C128.025 1.88494 128.096 2.21728 128.096 2.57245ZM134.775 0.0618418V12.9383H135.482C135.748 12.9383 135.958 12.9003 136.112 12.8242C136.266 12.7481 136.419 12.6085 136.573 12.4056L140.076 7.77823C140.25 7.54483 140.447 7.36725 140.667 7.24547C140.888 7.1237 141.167 7.06282 141.505 7.06282H145.376L140.829 12.7861C140.47 13.2631 140.055 13.6385 139.584 13.9125C139.82 14.0749 140.025 14.2626 140.199 14.4757C140.373 14.6888 140.542 14.9273 140.706 15.1911L145.607 22.7563H141.797C141.469 22.7563 141.187 22.703 140.952 22.5964C140.716 22.4899 140.521 22.2996 140.368 22.0256L136.803 16.2567C136.66 16.0131 136.511 15.8558 136.358 15.7848C136.204 15.7137 135.974 15.6782 135.666 15.6782H134.775V22.7563H130.535V0.0618418H134.775ZM157.248 22.7563C156.849 22.7563 156.544 22.7005 156.334 22.5888C156.124 22.4772 155.953 22.2438 155.82 21.8886L155.481 20.8992C155.082 21.2443 154.695 21.5462 154.322 21.8049C153.948 22.0637 153.558 22.2819 153.154 22.4594C152.749 22.637 152.319 22.7715 151.863 22.8628C151.408 22.9542 150.903 22.9998 150.35 22.9998C149.653 22.9998 149.018 22.9085 148.445 22.7258C147.871 22.5432 147.377 22.2717 146.962 21.9115C146.547 21.5512 146.227 21.1022 146.002 20.5644C145.777 20.0265 145.664 19.4075 145.664 18.7073C145.664 18.1289 145.812 17.553 146.11 16.9797C146.407 16.4063 146.916 15.8837 147.638 15.4119C148.36 14.94 149.323 14.5468 150.527 14.2322C151.73 13.9176 153.238 13.74 155.051 13.6994V12.8927C155.051 11.9083 154.841 11.1853 154.421 10.7236C154.001 10.2619 153.397 10.031 152.608 10.031C152.025 10.031 151.538 10.0995 151.149 10.2365C150.76 10.3735 150.419 10.5207 150.127 10.6779C149.835 10.8352 149.561 10.9824 149.305 11.1194C149.049 11.2564 148.752 11.3249 148.414 11.3249C148.117 11.3249 147.869 11.2513 147.669 11.1041C147.469 10.957 147.303 10.782 147.17 10.579L146.417 9.2395C147.349 8.40738 148.378 7.78584 149.505 7.37486C150.632 6.96387 151.85 6.75838 153.162 6.75838C154.104 6.75838 154.946 6.9106 155.689 7.21503C156.432 7.51946 157.061 7.94313 157.579 8.48603C158.096 9.02894 158.493 9.67585 158.769 10.4268C159.046 11.1777 159.184 11.9997 159.184 12.8927V22.7563H157.248ZM151.671 20.1686C152.368 20.1686 152.977 20.0443 153.5 19.7957C154.022 19.5471 154.539 19.164 155.051 18.6464V16.211C154.017 16.2516 153.156 16.3378 152.47 16.4698C151.784 16.6017 151.239 16.7666 150.834 16.9645C150.429 17.1623 150.143 17.3907 149.974 17.6494C149.805 17.9082 149.72 18.1898 149.72 18.4942C149.72 19.1031 149.892 19.5344 150.235 19.7881C150.578 20.0418 151.057 20.1686 151.671 20.1686ZM166.247 0.0608863V22.7563H162.007V0.0608863H166.247Z" fill="#4D20FF"/>
<path fill-rule="evenodd" clip-rule="evenodd" d="M168.176 20.6113C168.176 20.2809 168.237 19.9679 168.361 19.6725C168.484 19.3771 168.654 19.1218 168.871 18.9065C169.088 18.6912 169.342 18.5209 169.633 18.3958C169.924 18.2706 170.242 18.208 170.587 18.208C170.923 18.208 171.238 18.2706 171.534 18.3958C171.83 18.5209 172.086 18.6912 172.303 18.9065C172.52 19.1218 172.691 19.3771 172.814 19.6725C172.937 19.9679 172.999 20.2809 172.999 20.6113C172.999 20.9518 172.937 21.2672 172.814 21.5576C172.691 21.848 172.52 22.1009 172.303 22.3162C172.086 22.5315 171.83 22.6992 171.534 22.8194C171.238 22.9396 170.923 22.9996 170.587 22.9996C170.242 22.9996 169.924 22.9396 169.633 22.8194C169.342 22.6992 169.088 22.5315 168.871 22.3162C168.654 22.1009 168.484 21.848 168.361 21.5576C168.237 21.2672 168.176 20.9518 168.176 20.6113Z" fill="#4D20FF"/>
<path d="M1.11233 25.328V17.108H2.25233L2.34833 17.732H2.39633C2.64433 17.524 2.92033 17.344 3.22433 17.192C3.52833 17.04 3.84433 16.964 4.17233 16.964C4.54033 16.964 4.86433 17.036 5.14433 17.18C5.43233 17.316 5.67633 17.516 5.87633 17.78C6.07633 18.044 6.22833 18.36 6.33233 18.728C6.43633 19.096 6.48833 19.508 6.48833 19.964C6.48833 20.468 6.41633 20.92 6.27233 21.32C6.13633 21.712 5.95233 22.044 5.72033 22.316C5.48833 22.58 5.22033 22.784 4.91633 22.928C4.61233 23.072 4.29633 23.144 3.96833 23.144C3.71233 23.144 3.45633 23.088 3.20033 22.976C2.94433 22.864 2.69633 22.704 2.45633 22.496L2.49233 23.48V25.328H1.11233ZM3.68033 22.004C4.07233 22.004 4.40033 21.836 4.66433 21.5C4.92833 21.156 5.06033 20.648 5.06033 19.976C5.06033 19.384 4.96033 18.924 4.76033 18.596C4.56033 18.268 4.23633 18.104 3.78833 18.104C3.37233 18.104 2.94033 18.324 2.49233 18.764V21.512C2.70833 21.696 2.91633 21.824 3.11633 21.896C3.31633 21.968 3.50433 22.004 3.68033 22.004ZM10.2978 23.144C9.92977 23.144 9.57777 23.076 9.24177 22.94C8.90577 22.804 8.60577 22.604 8.34177 22.34C8.08577 22.076 7.88177 21.752 7.72977 21.368C7.57777 20.984 7.50177 20.548 7.50177 20.06C7.50177 19.572 7.57777 19.136 7.72977 18.752C7.88177 18.368 8.08577 18.044 8.34177 17.78C8.60577 17.516 8.90577 17.316 9.24177 17.18C9.57777 17.036 9.92977 16.964 10.2978 16.964C10.6658 16.964 11.0178 17.036 11.3538 17.18C11.6978 17.316 11.9978 17.516 12.2538 17.78C12.5098 18.044 12.7138 18.368 12.8658 18.752C13.0258 19.136 13.1058 19.572 13.1058 20.06C13.1058 20.548 13.0258 20.984 12.8658 21.368C12.7138 21.752 12.5098 22.076 12.2538 22.34C11.9978 22.604 11.6978 22.804 11.3538 22.94C11.0178 23.076 10.6658 23.144 10.2978 23.144ZM10.2978 22.016C10.7298 22.016 11.0698 21.84 11.3178 21.488C11.5658 21.128 11.6898 20.652 11.6898 20.06C11.6898 19.46 11.5658 18.984 11.3178 18.632C11.0698 18.272 10.7298 18.092 10.2978 18.092C9.86577 18.092 9.52577 18.272 9.27777 18.632C9.03777 18.984 8.91777 19.46 8.91777 20.06C8.91777 20.652 9.03777 21.128 9.27777 21.488C9.52577 21.84 9.86577 22.016 10.2978 22.016ZM15.3734 23L13.8134 17.108H15.2054L15.9134 20.168C15.9774 20.448 16.0294 20.728 16.0694 21.008C16.1174 21.288 16.1694 21.572 16.2254 21.86H16.2734C16.3294 21.572 16.3854 21.288 16.4414 21.008C16.5054 20.728 16.5734 20.448 16.6454 20.168L17.4134 17.108H18.6734L19.4534 20.168C19.5254 20.448 19.5934 20.728 19.6574 21.008C19.7214 21.288 19.7854 21.572 19.8494 21.86H19.8974C19.9534 21.572 20.0054 21.288 20.0534 21.008C20.1014 20.728 20.1534 20.448 20.2094 20.168L20.9174 17.108H22.2134L20.7134 23H19.0694L18.3854 20.252C18.3214 19.972 18.2614 19.696 18.2054 19.424C18.1494 19.144 18.0894 18.848 18.0254 18.536H17.9774C17.9214 18.848 17.8654 19.144 17.8094 19.424C17.7534 19.704 17.6934 19.984 17.6294 20.264L16.9574 23H15.3734ZM25.8276 23.144C25.4196 23.144 25.0396 23.076 24.6876 22.94C24.3356 22.796 24.0276 22.592 23.7636 22.328C23.4996 22.064 23.2916 21.744 23.1396 21.368C22.9956 20.984 22.9236 20.548 22.9236 20.06C22.9236 19.58 22.9996 19.148 23.1516 18.764C23.3036 18.38 23.5036 18.056 23.7516 17.792C24.0076 17.528 24.2996 17.324 24.6276 17.18C24.9556 17.036 25.2916 16.964 25.6356 16.964C26.0356 16.964 26.3876 17.032 26.6916 17.168C26.9956 17.304 27.2476 17.496 27.4476 17.744C27.6556 17.992 27.8116 18.288 27.9156 18.632C28.0196 18.976 28.0716 19.352 28.0716 19.76C28.0716 19.896 28.0636 20.024 28.0476 20.144C28.0396 20.264 28.0276 20.36 28.0116 20.432H24.2676C24.3316 20.96 24.5156 21.368 24.8196 21.656C25.1316 21.936 25.5276 22.076 26.0076 22.076C26.2636 22.076 26.4996 22.04 26.7156 21.968C26.9396 21.888 27.1596 21.78 27.3756 21.644L27.8436 22.508C27.5636 22.692 27.2516 22.844 26.9076 22.964C26.5636 23.084 26.2036 23.144 25.8276 23.144ZM24.2556 19.496H26.8716C26.8716 19.04 26.7716 18.684 26.5716 18.428C26.3796 18.164 26.0796 18.032 25.6716 18.032C25.3196 18.032 25.0116 18.156 24.7476 18.404C24.4836 18.652 24.3196 19.016 24.2556 19.496ZM29.3897 23V17.108H30.5297L30.6257 18.152H30.6737C30.8817 17.768 31.1337 17.476 31.4297 17.276C31.7257 17.068 32.0297 16.964 32.3417 16.964C32.6217 16.964 32.8457 17.004 33.0137 17.084L32.7737 18.284C32.6697 18.252 32.5737 18.228 32.4857 18.212C32.3977 18.196 32.2897 18.188 32.1617 18.188C31.9297 18.188 31.6857 18.28 31.4297 18.464C31.1737 18.64 30.9537 18.952 30.7697 19.4V23H29.3897ZM36.269 23.144C35.861 23.144 35.481 23.076 35.129 22.94C34.777 22.796 34.469 22.592 34.205 22.328C33.941 22.064 33.733 21.744 33.581 21.368C33.437 20.984 33.365 20.548 33.365 20.06C33.365 19.58 33.441 19.148 33.593 18.764C33.745 18.38 33.945 18.056 34.193 17.792C34.449 17.528 34.741 17.324 35.069 17.18C35.397 17.036 35.733 16.964 36.077 16.964C36.477 16.964 36.829 17.032 37.133 17.168C37.437 17.304 37.689 17.496 37.889 17.744C38.097 17.992 38.253 18.288 38.357 18.632C38.461 18.976 38.513 19.352 38.513 19.76C38.513 19.896 38.505 20.024 38.489 20.144C38.481 20.264 38.469 20.36 38.453 20.432H34.709C34.773 20.96 34.957 21.368 35.261 21.656C35.573 21.936 35.969 22.076 36.449 22.076C36.705 22.076 36.941 22.04 37.157 21.968C37.381 21.888 37.601 21.78 37.817 21.644L38.285 22.508C38.005 22.692 37.693 22.844 37.349 22.964C37.005 23.084 36.645 23.144 36.269 23.144ZM34.697 19.496H37.313C37.313 19.04 37.213 18.684 37.013 18.428C36.821 18.164 36.521 18.032 36.113 18.032C35.761 18.032 35.453 18.156 35.189 18.404C34.925 18.652 34.761 19.016 34.697 19.496ZM41.8951 23.144C41.1511 23.144 40.5591 22.876 40.1191 22.34C39.6871 21.796 39.4711 21.036 39.4711 20.06C39.4711 19.58 39.5391 19.148 39.6751 18.764C39.8191 18.38 40.0071 18.056 40.2391 17.792C40.4711 17.528 40.7351 17.324 41.0311 17.18C41.3351 17.036 41.6471 16.964 41.9671 16.964C42.3031 16.964 42.5871 17.024 42.8191 17.144C43.0511 17.256 43.2831 17.412 43.5151 17.612L43.4671 16.664V14.528H44.8471V23H43.7071L43.6111 22.364H43.5631C43.3471 22.58 43.0951 22.764 42.8071 22.916C42.5191 23.068 42.2151 23.144 41.8951 23.144ZM42.2311 22.004C42.6711 22.004 43.0831 21.784 43.4671 21.344V18.596C43.2591 18.412 43.0551 18.284 42.8551 18.212C42.6631 18.14 42.4671 18.104 42.2671 18.104C41.8831 18.104 41.5591 18.272 41.2951 18.608C41.0311 18.944 40.8991 19.424 40.8991 20.048C40.8991 20.688 41.0111 21.176 41.2351 21.512C41.4671 21.84 41.7991 22.004 42.2311 22.004ZM51.8629 23.144C51.5909 23.144 51.3149 23.08 51.0349 22.952C50.7629 22.816 50.5029 22.624 50.2549 22.376H50.2189L50.0989 23H49.0069V14.528H50.3869V16.712L50.3509 17.696C50.5989 17.48 50.8669 17.304 51.1549 17.168C51.4509 17.032 51.7509 16.964 52.0549 16.964C52.4229 16.964 52.7509 17.036 53.0389 17.18C53.3269 17.316 53.5709 17.516 53.7709 17.78C53.9709 18.036 54.1229 18.348 54.2269 18.716C54.3309 19.084 54.3829 19.496 54.3829 19.952C54.3829 20.456 54.3109 20.908 54.1669 21.308C54.0309 21.7 53.8469 22.032 53.6149 22.304C53.3829 22.576 53.1149 22.784 52.8109 22.928C52.5069 23.072 52.1909 23.144 51.8629 23.144ZM51.5749 22.004C51.9669 22.004 52.2949 21.836 52.5589 21.5C52.8229 21.156 52.9549 20.648 52.9549 19.976C52.9549 19.384 52.8549 18.924 52.6549 18.596C52.4549 18.268 52.1309 18.104 51.6829 18.104C51.2669 18.104 50.8349 18.324 50.3869 18.764V21.512C50.5949 21.696 50.7989 21.824 50.9989 21.896C51.2069 21.968 51.3989 22.004 51.5749 22.004ZM56.0943 25.424C55.9343 25.424 55.7943 25.412 55.6743 25.388C55.5543 25.372 55.4383 25.344 55.3263 25.304L55.5783 24.224C55.6343 24.24 55.6983 24.256 55.7703 24.272C55.8503 24.296 55.9263 24.308 55.9983 24.308C56.3103 24.308 56.5583 24.212 56.7423 24.02C56.9343 23.836 57.0783 23.596 57.1743 23.3L57.2823 22.928L54.9663 17.108H56.3703L57.3903 20C57.4783 20.256 57.5623 20.528 57.6423 20.816C57.7303 21.096 57.8183 21.376 57.9063 21.656H57.9543C58.0263 21.384 58.0983 21.108 58.1703 20.828C58.2503 20.54 58.3263 20.264 58.3983 20L59.2863 17.108H60.6183L58.4823 23.264C58.3623 23.6 58.2303 23.9 58.0863 24.164C57.9423 24.428 57.7743 24.652 57.5823 24.836C57.3983 25.028 57.1823 25.172 56.9343 25.268C56.6943 25.372 56.4143 25.424 56.0943 25.424Z" fill="#4D20FF"/>
</svg>
