<svg width="114" height="26" viewBox="0 0 114 26" fill="none" xmlns="http://www.w3.org/2000/svg">
<circle cx="61" cy="13" r="13" fill="#4D20FF"/>
<path d="M12.6134 12.2324C12.6134 13.2927 12.4398 14.2664 12.0927 15.1534C11.7456 16.0403 11.2577 16.8039 10.629 17.4441C10.0003 18.0843 9.2439 18.5812 8.35979 18.9346C7.47567 19.2881 6.4966 19.4648 5.42256 19.4648H0V5H5.42256C6.4966 5 7.47567 5.18006 8.35979 5.54018C9.2439 5.89363 10.0003 6.39046 10.629 7.03067C11.2577 7.66422 11.7456 8.42447 12.0927 9.31143C12.4398 10.1984 12.6134 11.172 12.6134 12.2324ZM9.9119 12.2324C9.9119 11.4388 9.80711 10.7286 9.59754 10.1017C9.38798 9.46814 9.09 8.93463 8.70361 8.50116C8.31722 8.06101 7.84569 7.72423 7.28903 7.49082C6.73891 7.25741 6.11676 7.14071 5.42256 7.14071H2.66216V17.3241H5.42256C6.11676 17.3241 6.73891 17.2074 7.28903 16.974C7.84569 16.7405 8.31722 16.4071 8.70361 15.9736C9.09 15.5335 9.38798 15 9.59754 14.3731C9.80711 13.7396 9.9119 13.026 9.9119 12.2324Z" fill="#4D20FF"/>
<path d="M14.5401 19.4648V9.20139H15.9645C16.2134 9.20139 16.387 9.24807 16.4852 9.34144C16.5834 9.4348 16.6489 9.59485 16.6817 9.82159L16.829 11.062C17.1892 10.4285 17.6116 9.9283 18.0962 9.56151C18.5809 9.19472 19.1244 9.01133 19.7269 9.01133C20.2247 9.01133 20.6372 9.12803 20.9647 9.36144L20.6503 11.2121C20.6307 11.3321 20.5881 11.4188 20.5226 11.4721C20.4571 11.5188 20.3687 11.5422 20.2574 11.5422C20.1592 11.5422 20.0249 11.5188 19.8546 11.4721C19.6844 11.4255 19.4584 11.4021 19.1768 11.4021C18.6726 11.4021 18.2403 11.5455 17.8801 11.8323C17.5199 12.1124 17.2154 12.5258 16.9665 13.0727V19.4648H14.5401Z" fill="#4D20FF"/>
<path d="M26.8628 9.04134C27.6159 9.04134 28.297 9.16471 28.9061 9.41146C29.5217 9.65821 30.0456 10.0083 30.4778 10.4618C30.9101 10.9153 31.2441 11.4688 31.4798 12.1224C31.7156 12.7759 31.8335 13.5061 31.8335 14.3131C31.8335 15.1267 31.7156 15.8603 31.4798 16.5138C31.2441 17.1674 30.9101 17.7242 30.4778 18.1844C30.0456 18.6445 29.5217 18.998 28.9061 19.2447C28.297 19.4915 27.6159 19.6148 26.8628 19.6148C26.1096 19.6148 25.4253 19.4915 24.8097 19.2447C24.1941 18.998 23.6669 18.6445 23.2281 18.1844C22.7959 17.7242 22.4586 17.1674 22.2163 16.5138C21.9805 15.8603 21.8626 15.1267 21.8626 14.3131C21.8626 13.5061 21.9805 12.7759 22.2163 12.1224C22.4586 11.4688 22.7959 10.9153 23.2281 10.4618C23.6669 10.0083 24.1941 9.65821 24.8097 9.41146C25.4253 9.16471 26.1096 9.04134 26.8628 9.04134ZM26.8628 17.7142C27.701 17.7142 28.3199 17.4274 28.7194 16.8539C29.1255 16.2804 29.3285 15.4401 29.3285 14.3331C29.3285 13.2261 29.1255 12.3824 28.7194 11.8022C28.3199 11.2221 27.701 10.932 26.8628 10.932C26.0114 10.932 25.3827 11.2254 24.9767 11.8123C24.5706 12.3924 24.3676 13.2327 24.3676 14.3331C24.3676 15.4335 24.5706 16.2737 24.9767 16.8539C25.3827 17.4274 26.0114 17.7142 26.8628 17.7142Z" fill="#4D20FF"/>
<path d="M33.7266 22.8159V9.20139H35.21C35.3672 9.20139 35.5014 9.23807 35.6127 9.31143C35.7241 9.38478 35.7961 9.49815 35.8289 9.65154L36.0253 10.6019C36.4314 10.1284 36.8963 9.7449 37.4203 9.45147C37.9507 9.15804 38.5696 9.01133 39.2769 9.01133C39.827 9.01133 40.328 9.12803 40.7799 9.36144C41.2383 9.59485 41.6313 9.93497 41.9587 10.3818C42.2927 10.8219 42.5481 11.3688 42.7249 12.0223C42.9083 12.6692 43 13.4128 43 14.2531C43 15.02 42.8985 15.7302 42.6955 16.3838C42.4925 17.0373 42.201 17.6042 41.8212 18.0843C41.4479 18.5645 40.9927 18.9413 40.4557 19.2147C39.9253 19.4815 39.3293 19.6148 38.6678 19.6148C38.0981 19.6148 37.6135 19.5281 37.214 19.3547C36.821 19.1747 36.4674 18.9279 36.153 18.6145V22.8159H33.7266ZM38.4419 10.962C37.9376 10.962 37.5054 11.072 37.1452 11.2921C36.7916 11.5055 36.4608 11.8089 36.153 12.2024V16.8039C36.4281 17.1507 36.7261 17.3941 37.047 17.5341C37.3744 17.6675 37.7248 17.7342 38.0981 17.7342C38.4648 17.7342 38.7956 17.6642 39.0903 17.5241C39.3915 17.3841 39.6436 17.1707 39.8467 16.8839C40.0562 16.5972 40.2167 16.237 40.328 15.8036C40.4393 15.3634 40.495 14.8466 40.495 14.2531C40.495 13.6529 40.4459 13.146 40.3477 12.7326C40.256 12.3124 40.1217 11.9723 39.9449 11.7122C39.7681 11.4521 39.552 11.2621 39.2965 11.142C39.0477 11.022 38.7628 10.962 38.4419 10.962Z" fill="#4D20FF"/>
<path d="M60.0259 6C60.5405 6 60.9996 6.08268 61.4031 6.24803C61.8124 6.41338 62.1604 6.63386 62.4469 6.90945C62.7393 7.18504 62.9674 7.50043 63.1311 7.85564C63.3007 8.21084 63.4001 8.5783 63.4294 8.958L62.0522 9.26115C62.0346 9.26727 62.0142 9.27034 61.9908 9.27034C61.9732 9.27034 61.9557 9.27034 61.9382 9.27034C61.8387 9.27034 61.7481 9.24278 61.6662 9.18766C61.5902 9.12642 61.5288 9.03455 61.482 8.91207C61.4294 8.75284 61.3621 8.6028 61.2803 8.46194C61.1984 8.31496 61.099 8.18941 60.982 8.0853C60.8651 7.97506 60.7276 7.88932 60.5697 7.82808C60.4118 7.76071 60.2305 7.72703 60.0259 7.72703C59.7803 7.72703 59.561 7.77296 59.368 7.86483C59.175 7.95057 59.0113 8.06999 58.8767 8.22309C58.7422 8.37007 58.6399 8.54461 58.5697 8.74671C58.4996 8.94269 58.4645 9.15091 58.4645 9.37139C58.4645 9.55511 58.482 9.73271 58.5171 9.90419C58.558 10.0757 58.6194 10.2471 58.7013 10.4186C58.7832 10.5901 58.8884 10.7677 59.0171 10.9514C59.1516 11.129 59.3153 11.322 59.5083 11.5302L62.8767 15.1955C63.0697 14.8097 63.2247 14.4024 63.3417 13.9737C63.4586 13.545 63.5346 13.1102 63.5697 12.6693C63.5814 12.5284 63.6253 12.4151 63.7013 12.3294C63.7773 12.2436 63.8826 12.2008 64.0171 12.2008H65.3767C65.3709 13.0092 65.2598 13.7808 65.0434 14.5157C64.827 15.2506 64.5171 15.9274 64.1136 16.5459L66.7715 19.4304H64.6487C64.5376 19.4304 64.4382 19.4243 64.3504 19.4121C64.2686 19.3998 64.1896 19.3784 64.1136 19.3477C64.0376 19.311 63.9645 19.2651 63.8943 19.21C63.8241 19.1548 63.751 19.0844 63.675 18.9987L62.7978 18.0525C62.2364 18.5302 61.6107 18.9037 60.9206 19.1732C60.2364 19.4427 59.4937 19.5774 58.6925 19.5774C58.2013 19.5774 57.7218 19.4917 57.2539 19.3202C56.7861 19.1426 56.368 18.8884 55.9996 18.5577C55.6311 18.227 55.3329 17.8289 55.1048 17.3635C54.8826 16.8919 54.7715 16.3622 54.7715 15.7743C54.7715 15.3639 54.8358 14.9751 54.9645 14.6076C55.0931 14.234 55.2715 13.888 55.4996 13.5695C55.7276 13.2511 55.9966 12.9632 56.3066 12.706C56.6224 12.4488 56.9674 12.2283 57.3417 12.0446C57.0317 11.5853 56.8036 11.1382 56.6574 10.7034C56.5171 10.2625 56.4469 9.82458 56.4469 9.38976C56.4469 8.93044 56.5259 8.49562 56.6838 8.0853C56.8475 7.66885 57.0814 7.30752 57.3855 7.00131C57.6955 6.6951 58.0727 6.45319 58.5171 6.27559C58.9615 6.09186 59.4645 6 60.0259 6ZM56.9732 15.5905C56.9732 15.9274 57.0288 16.2305 57.1399 16.5C57.251 16.7694 57.4031 16.9991 57.596 17.189C57.789 17.3727 58.0113 17.5166 58.2627 17.6207C58.52 17.7187 58.792 17.7677 59.0785 17.7677C59.5931 17.7677 60.061 17.685 60.482 17.5197C60.9089 17.3482 61.2978 17.1124 61.6487 16.8123L58.3153 13.2296C57.8475 13.5481 57.5054 13.9064 57.289 14.3044C57.0785 14.7025 56.9732 15.1312 56.9732 15.5905Z" fill="white"/>
<path d="M86.7518 7.02102C86.6793 7.16872 86.5936 7.27277 86.4947 7.33319C86.4024 7.39361 86.2903 7.42382 86.1585 7.42382C86.0266 7.42382 85.8783 7.37347 85.7135 7.27277C85.5486 7.16536 85.3542 7.04787 85.13 6.92032C84.9059 6.79277 84.6421 6.67864 84.3389 6.57794C84.0422 6.47052 83.6895 6.41682 83.2808 6.41682C82.9116 6.41682 82.5885 6.46381 82.3116 6.5578C82.0413 6.64507 81.8106 6.76927 81.6194 6.93039C81.4348 7.09151 81.2963 7.2862 81.2041 7.51445C81.1118 7.736 81.0656 7.98103 81.0656 8.24957C81.0656 8.59195 81.1579 8.87727 81.3425 9.10553C81.5337 9.33378 81.7842 9.52847 82.0941 9.68959C82.4039 9.85071 82.7566 9.99505 83.1522 10.1226C83.5478 10.2502 83.9499 10.3878 84.3587 10.5355C84.774 10.6765 85.1795 10.8443 85.575 11.039C85.9706 11.227 86.3233 11.4686 86.6331 11.764C86.943 12.0527 87.1902 12.4085 87.3748 12.8315C87.566 13.2544 87.6616 13.768 87.6616 14.3722C87.6616 15.0301 87.5495 15.6477 87.3254 16.2251C87.1078 16.7957 86.7848 17.2959 86.3562 17.7255C85.9343 18.1485 85.4168 18.4841 84.8037 18.7325C84.1905 18.9742 83.4884 19.095 82.6973 19.095C82.2424 19.095 81.7941 19.048 81.3524 18.9541C80.9107 18.8668 80.4854 18.7392 80.0767 18.5714C79.6745 18.4036 79.2955 18.2022 78.9395 17.9672C78.59 17.7322 78.2769 17.4704 78 17.1817L78.7713 15.8827C78.8439 15.7887 78.9296 15.7115 79.0285 15.6511C79.1339 15.5839 79.2493 15.5504 79.3746 15.5504C79.5394 15.5504 79.7174 15.6209 79.9086 15.7618C80.0998 15.8961 80.3239 16.0472 80.581 16.215C80.8447 16.3828 81.1513 16.5372 81.5007 16.6782C81.8567 16.8125 82.282 16.8796 82.7764 16.8796C83.5346 16.8796 84.1213 16.6984 84.5367 16.3358C84.952 15.9666 85.1597 15.4396 85.1597 14.7548C85.1597 14.3722 85.0641 14.06 84.8729 13.8183C84.6883 13.5766 84.4411 13.3752 84.1312 13.2141C83.8214 13.0463 83.4686 12.9053 83.0731 12.7912C82.6775 12.677 82.2754 12.5528 81.8666 12.4186C81.4579 12.2843 81.0557 12.1232 80.6602 11.9352C80.2646 11.7472 79.9119 11.5022 79.602 11.2001C79.2922 10.898 79.0416 10.522 78.8505 10.0723C78.6659 9.61574 78.5736 9.05518 78.5736 8.39055C78.5736 7.86019 78.6758 7.34326 78.8801 6.83976C79.0911 6.33626 79.3944 5.88982 79.7899 5.50044C80.1921 5.11106 80.6832 4.79889 81.2634 4.56392C81.8435 4.32896 82.5061 4.21147 83.2511 4.21147C84.095 4.21147 84.8729 4.34574 85.5849 4.61427C86.2969 4.88281 86.9034 5.25876 87.4045 5.74212L86.7518 7.02102Z" fill="#4D20FF"/>
<path d="M92.1539 8.60202V18.9339H89.7113V8.60202H92.1539ZM92.5198 5.59107C92.5198 5.8059 92.4769 6.0073 92.3912 6.19527C92.3055 6.38325 92.1901 6.54773 92.0451 6.68871C91.9066 6.82969 91.7418 6.94382 91.5506 7.03109C91.3594 7.11165 91.1551 7.15193 90.9375 7.15193C90.7265 7.15193 90.5255 7.11165 90.3343 7.03109C90.1497 6.94382 89.9882 6.82969 89.8497 6.68871C89.7113 6.54773 89.5992 6.38325 89.5135 6.19527C89.4344 6.0073 89.3948 5.8059 89.3948 5.59107C89.3948 5.36953 89.4344 5.16141 89.5135 4.96673C89.5992 4.77204 89.7113 4.6042 89.8497 4.46322C89.9882 4.32224 90.1497 4.21147 90.3343 4.13091C90.5255 4.04364 90.7265 4 90.9375 4C91.1551 4 91.3594 4.04364 91.5506 4.13091C91.7418 4.21147 91.9066 4.32224 92.0451 4.46322C92.1901 4.6042 92.3055 4.77204 92.3912 4.96673C92.4769 5.16141 92.5198 5.36953 92.5198 5.59107Z" fill="#4D20FF"/>
<path d="M98.4331 8.42076C98.8682 8.42076 99.277 8.46775 99.6593 8.56174C100.042 8.64902 100.391 8.77993 100.708 8.95447H103.625V9.88092C103.625 10.0353 103.585 10.1562 103.506 10.2434C103.427 10.3307 103.292 10.3911 103.101 10.4247L102.191 10.5959C102.257 10.7704 102.306 10.9551 102.339 11.1498C102.379 11.3444 102.399 11.5492 102.399 11.764C102.399 12.2742 102.296 12.7375 102.092 13.1537C101.894 13.5632 101.617 13.9123 101.261 14.201C100.912 14.4897 100.493 14.7146 100.005 14.8757C99.5242 15.0301 99.0001 15.1073 98.4331 15.1073C98.0507 15.1073 97.6782 15.0704 97.3156 14.9965C96.9992 15.1912 96.841 15.4094 96.841 15.6511C96.841 15.8592 96.9333 16.0136 97.1178 16.1143C97.309 16.2083 97.5563 16.2754 97.8595 16.3157C98.1694 16.356 98.5188 16.3828 98.9078 16.3963C99.2967 16.403 99.6956 16.4231 100.104 16.4567C100.513 16.4902 100.912 16.5507 101.301 16.6379C101.69 16.7185 102.036 16.8494 102.339 17.0307C102.649 17.2119 102.896 17.4603 103.081 17.7759C103.272 18.0847 103.368 18.4841 103.368 18.9742C103.368 19.4307 103.256 19.8738 103.032 20.3034C102.814 20.7331 102.494 21.1158 102.072 21.4514C101.657 21.7871 101.146 22.0556 100.539 22.257C99.9329 22.4652 99.2407 22.5692 98.4628 22.5692C97.6914 22.5692 97.0223 22.492 96.4553 22.3376C95.8883 22.1899 95.4169 21.9885 95.0411 21.7334C94.672 21.485 94.3951 21.1963 94.2105 20.8674C94.0259 20.5384 93.9336 20.196 93.9336 19.8402C93.9336 19.3569 94.0786 18.9507 94.3687 18.6217C94.6588 18.2928 95.0609 18.031 95.5752 17.8363C95.3246 17.6953 95.1236 17.5073 94.9719 17.2724C94.8203 17.0374 94.7445 16.7319 94.7445 16.356C94.7445 16.2016 94.7708 16.0438 94.8236 15.8827C94.8763 15.7148 94.9554 15.5504 95.0609 15.3893C95.173 15.2281 95.3114 15.0771 95.4763 14.9361C95.6411 14.7884 95.8356 14.6575 96.0597 14.5434C95.5455 14.2614 95.14 13.8855 94.8434 13.4155C94.5533 12.9456 94.4082 12.3951 94.4082 11.764C94.4082 11.2538 94.5071 10.7939 94.7049 10.3844C94.9093 9.9682 95.1895 9.61574 95.5455 9.32707C95.9081 9.03168 96.3333 8.80678 96.8212 8.65237C97.3156 8.49797 97.8529 8.42076 98.4331 8.42076ZM101.113 19.3971C101.113 19.1957 101.054 19.0313 100.935 18.9037C100.816 18.7762 100.655 18.6788 100.45 18.6117C100.246 18.5378 100.005 18.4841 99.7286 18.4506C99.4583 18.417 99.1682 18.3935 98.8583 18.3801C98.5551 18.3599 98.2386 18.3431 97.909 18.3297C97.5859 18.3096 97.2728 18.2794 96.9695 18.2391C96.6926 18.3935 96.4685 18.5781 96.2971 18.7929C96.1322 19.001 96.0498 19.2427 96.0498 19.518C96.0498 19.6992 96.0927 19.8671 96.1784 20.0215C96.2707 20.1826 96.4124 20.3202 96.6036 20.4344C96.8014 20.5485 97.0552 20.6358 97.3651 20.6962C97.6749 20.7633 98.054 20.7969 98.5023 20.7969C98.9572 20.7969 99.3495 20.76 99.6791 20.6861C100.009 20.619 100.279 20.5216 100.49 20.3941C100.708 20.2732 100.866 20.1255 100.965 19.951C101.064 19.7832 101.113 19.5985 101.113 19.3971ZM98.4331 13.5162C98.7364 13.5162 99.0001 13.4759 99.2242 13.3954C99.4484 13.3081 99.633 13.1906 99.778 13.0429C99.9296 12.8952 100.042 12.7173 100.114 12.5092C100.193 12.3011 100.233 12.0728 100.233 11.8244C100.233 11.3142 100.081 10.9114 99.778 10.616C99.4813 10.3139 99.033 10.1629 98.4331 10.1629C97.8332 10.1629 97.3816 10.3139 97.0783 10.616C96.7816 10.9114 96.6333 11.3142 96.6333 11.8244C96.6333 12.0661 96.6695 12.291 96.7421 12.4991C96.8212 12.7073 96.9333 12.8885 97.0783 13.0429C97.2299 13.1906 97.4178 13.3081 97.642 13.3954C97.8727 13.4759 98.1364 13.5162 98.4331 13.5162Z" fill="#4D20FF"/>
<path d="M105.159 18.9339V8.60202H106.652C106.969 8.60202 107.177 8.75307 107.275 9.05518L107.444 9.87085C107.648 9.65602 107.862 9.46134 108.086 9.28679C108.317 9.11224 108.558 8.96119 108.808 8.83363C109.065 8.70608 109.339 8.60874 109.629 8.5416C109.919 8.47447 110.236 8.4409 110.578 8.4409C111.132 8.4409 111.623 8.53825 112.052 8.73293C112.48 8.92091 112.836 9.18944 113.12 9.53854C113.41 9.88092 113.628 10.2938 113.773 10.7772C113.924 11.2538 114 11.7808 114 12.3582V18.9339H111.557V12.3582C111.557 11.7271 111.412 11.2404 111.122 10.898C110.839 10.5489 110.41 10.3744 109.837 10.3744C109.415 10.3744 109.019 10.4717 108.65 10.6664C108.281 10.8611 107.931 11.1263 107.602 11.4619V18.9339H105.159Z" fill="#4D20FF"/>
<ellipse cx="60.7663" cy="13" rx="12.7663" ry="13" fill="#4D20FF"/>
<path d="M59.0064 8.90619C59.0064 9.26946 59.0995 9.61255 59.2858 9.93546C59.4778 10.2584 59.7431 10.6015 60.0819 10.9647C60.7198 10.5957 61.1658 10.2526 61.4199 9.93546C61.6796 9.61255 61.8095 9.25216 61.8095 8.85429C61.8095 8.47949 61.6853 8.17964 61.4368 7.95476C61.1941 7.72987 60.8694 7.61743 60.463 7.61743C60.0169 7.61743 59.6613 7.73564 59.3959 7.97206C59.1362 8.20271 59.0064 8.51408 59.0064 8.90619ZM60.2682 17.2528C61.3013 17.2528 62.1849 16.9443 62.9188 16.3273L59.6754 13.0665C59.0769 13.4586 58.6648 13.8277 58.439 14.1737C58.2131 14.5139 58.1002 14.9031 58.1002 15.3413C58.1002 15.9064 58.295 16.3677 58.6845 16.7252C59.0797 17.077 59.6076 17.2528 60.2682 17.2528ZM56 15.4797C56 14.7243 56.1807 14.067 56.542 13.5077C56.9033 12.9426 57.5554 12.3832 58.4982 11.8297C57.9619 11.1896 57.5949 10.6505 57.3973 10.2122C57.2054 9.76824 57.1094 9.30982 57.1094 8.83699C57.1094 7.96052 57.4143 7.26857 58.024 6.76114C58.6394 6.25371 59.4637 6 60.4968 6C61.4961 6 62.2809 6.24795 62.8511 6.74385C63.4213 7.23398 63.7064 7.89709 63.7064 8.7332C63.7064 9.39055 63.5145 9.98736 63.1306 10.5236C62.7523 11.0599 62.1171 11.5961 61.2251 12.1324L64.1553 15.0213C64.6126 14.4043 64.9936 13.499 65.2985 12.3054H67.3479C66.9527 13.943 66.3204 15.2779 65.451 16.31L68 18.827H65.434L64.1722 17.5729C63.5963 18.0457 62.9809 18.4032 62.326 18.6454C61.6768 18.8818 60.957 19 60.1665 19C58.868 19 57.849 18.6857 57.1094 18.0572C56.3698 17.4287 56 16.5695 56 15.4797Z" fill="white"/>
</svg>
