<svg width="568" height="348" viewBox="0 0 568 348" fill="none" xmlns="http://www.w3.org/2000/svg">
<g opacity="0.5">
<path d="M563.156 338.302H560.707C561.245 336.784 561.541 335.152 561.541 333.452C561.541 329.857 560.233 326.469 557.923 323.851C558.18 322.763 558.312 321.646 558.312 320.523C558.312 314.203 554.261 308.813 548.622 306.812V136.264C548.622 133.586 546.453 131.416 543.777 131.416H471.106V84.5432C471.106 81.8649 468.937 79.6943 466.261 79.6943H324.149C321.474 79.6943 319.305 81.8649 319.305 84.5432V306.811C313.666 308.813 309.615 314.202 309.615 320.523C309.615 321.645 309.747 322.763 310.003 323.851C307.694 326.469 306.385 329.856 306.385 333.452C306.385 335.152 306.681 336.784 307.219 338.302H304.771C302.095 338.302 299.926 340.472 299.926 343.151C299.926 345.829 302.095 348 304.771 348H563.156C565.831 348 568.001 345.829 568.001 343.151C568.001 340.473 565.831 338.302 563.156 338.302ZM471.106 141.113H538.932V306.814C538.381 307.01 537.841 307.237 537.317 307.499C535.325 306.504 533.118 305.977 530.858 305.977C528.598 305.977 526.391 306.505 524.398 307.499C522.406 306.504 520.199 305.977 517.939 305.977C515.679 305.977 513.472 306.505 511.48 307.499C509.487 306.504 507.28 305.977 505.02 305.977C502.76 305.977 500.553 306.505 498.561 307.499C496.568 306.504 494.361 305.977 492.101 305.977C489.841 305.977 487.634 306.505 485.642 307.499C483.649 306.504 481.442 305.977 479.182 305.977C476.922 305.977 474.715 306.505 472.723 307.499C472.198 307.237 471.659 307.01 471.108 306.814V141.113H471.106ZM328.994 89.3921H461.416V136.264V306.814C460.866 307.01 460.325 307.237 459.802 307.499C457.809 306.504 455.602 305.977 453.342 305.977C451.676 305.977 450.04 306.266 448.497 306.815V304.359C448.497 301.681 446.328 299.51 443.653 299.51C440.977 299.51 438.808 301.681 438.808 304.359V306.069C437.116 306.259 435.478 306.743 433.963 307.499C432.448 306.743 430.81 306.258 429.118 306.069V304.359C429.118 301.681 426.949 299.51 424.274 299.51C421.598 299.51 419.429 301.681 419.429 304.359V306.814C417.886 306.266 416.25 305.976 414.584 305.976C412.918 305.976 411.282 306.265 409.739 306.814V304.359C409.739 301.681 407.57 299.51 404.895 299.51C402.219 299.51 400.05 301.681 400.05 304.359V306.069C398.358 306.259 396.72 306.743 395.205 307.499C393.691 306.743 392.052 306.258 390.361 306.069V304.359C390.361 301.681 388.191 299.51 385.516 299.51C382.84 299.51 380.671 301.681 380.671 304.359V306.814C379.128 306.266 377.492 305.976 375.826 305.976C374.16 305.976 372.525 306.265 370.982 306.814V304.359C370.982 301.681 368.812 299.51 366.137 299.51C363.461 299.51 361.292 301.681 361.292 304.359V306.069C359.6 306.259 357.962 306.743 356.447 307.499C354.933 306.743 353.294 306.258 351.603 306.069V304.359C351.603 301.681 349.433 299.51 346.758 299.51C344.082 299.51 341.913 301.681 341.913 304.359V306.814C340.37 306.266 338.734 305.976 337.068 305.976C334.808 305.976 332.602 306.504 330.609 307.498C330.084 307.236 329.545 307.009 328.994 306.813V89.3921ZM547.018 338.301C547.01 338.301 547.002 338.303 546.993 338.303H320.945C320.936 338.303 320.928 338.301 320.92 338.301C318.248 338.301 316.075 336.127 316.075 333.452C316.075 331.795 316.916 330.268 318.322 329.368C320.49 327.98 321.196 325.139 319.931 322.897C319.516 322.161 319.305 321.363 319.305 320.523C319.305 317.849 321.478 315.675 324.15 315.675C325.67 315.675 326.742 316.352 327.375 316.919C329.216 318.572 332.004 318.572 333.845 316.919C334.478 316.352 335.55 315.675 337.07 315.675C338.589 315.675 339.662 316.352 340.295 316.919C342.136 318.572 344.924 318.572 346.765 316.919C347.398 316.352 348.47 315.675 349.99 315.675C351.51 315.675 352.582 316.352 353.215 316.919C355.056 318.572 357.844 318.572 359.685 316.919C360.318 316.352 361.39 315.675 362.91 315.675C364.429 315.675 365.502 316.352 366.135 316.919C367.976 318.572 370.764 318.572 372.605 316.919C373.238 316.352 374.31 315.675 375.83 315.675C377.349 315.675 378.422 316.352 379.055 316.919C380.896 318.572 383.684 318.572 385.525 316.919C386.158 316.352 387.23 315.675 388.75 315.675C390.269 315.675 391.342 316.352 391.975 316.919C393.816 318.572 396.604 318.572 398.445 316.919C399.078 316.352 400.15 315.675 401.67 315.675C403.189 315.675 404.262 316.352 404.895 316.919C406.736 318.572 409.524 318.572 411.365 316.919C411.998 316.352 413.07 315.675 414.59 315.675C416.109 315.675 417.182 316.352 417.815 316.919C419.656 318.572 422.444 318.572 424.285 316.919C424.918 316.352 425.99 315.675 427.51 315.675C429.029 315.675 430.102 316.352 430.735 316.919C432.576 318.572 435.364 318.572 437.205 316.919C437.838 316.352 438.91 315.675 440.43 315.675C441.949 315.675 443.022 316.352 443.655 316.919C445.496 318.572 448.284 318.572 450.125 316.919C450.758 316.352 451.83 315.675 453.35 315.675C454.869 315.675 455.942 316.352 456.575 316.919C458.416 318.572 461.204 318.572 463.045 316.919C463.678 316.352 464.75 315.675 466.27 315.675C467.789 315.675 468.862 316.352 469.495 316.919C471.336 318.572 474.124 318.572 475.965 316.919C476.598 316.352 477.67 315.675 479.19 315.675C480.709 315.675 481.782 316.352 482.415 316.919C484.256 318.572 487.044 318.572 488.885 316.919C489.518 316.352 490.59 315.675 492.11 315.675C493.629 315.675 494.702 316.352 495.335 316.919C497.176 318.572 499.964 318.572 501.805 316.919C502.438 316.352 503.51 315.675 505.03 315.675C506.549 315.675 507.622 316.352 508.255 316.919C510.096 318.572 512.884 318.572 514.725 316.919C515.358 316.352 516.43 315.675 517.95 315.675C519.469 315.675 520.542 316.352 521.175 316.919C523.016 318.572 525.804 318.572 527.645 316.919C528.278 316.352 529.35 315.675 530.87 315.675C532.389 315.675 533.462 316.352 534.095 316.919C535.936 318.572 538.724 318.572 540.565 316.919C541.198 316.352 542.27 315.675 543.79 315.675C546.462 315.675 548.635 317.849 548.635 320.523C548.635 321.363 548.424 322.161 548.009 322.897C546.743 325.14 547.45 327.98 549.617 329.368C551.025 330.269 551.865 331.796 551.865 333.452C551.863 336.126 549.69 338.301 547.018 338.301Z" fill="white"/>
<path d="M485.64 166.974H524.398C527.073 166.974 529.242 164.804 529.242 162.125C529.242 159.447 527.073 157.276 524.398 157.276H485.64C482.964 157.276 480.795 159.447 480.795 162.125C480.795 164.804 482.964 166.974 485.64 166.974Z" fill="white"/>
<path d="M485.64 192.835H524.398C527.073 192.835 529.242 190.665 529.242 187.987C529.242 185.308 527.073 183.138 524.398 183.138H485.64C482.964 183.138 480.795 185.308 480.795 187.987C480.795 190.665 482.964 192.835 485.64 192.835Z" fill="white"/>
<path d="M485.64 218.696H524.398C527.073 218.696 529.242 216.525 529.242 213.847C529.242 211.169 527.073 208.998 524.398 208.998H485.64C482.964 208.998 480.795 211.169 480.795 213.847C480.795 216.525 482.964 218.696 485.64 218.696Z" fill="white"/>
<path d="M485.64 244.557H524.398C527.073 244.557 529.242 242.386 529.242 239.708C529.242 237.029 527.073 234.859 524.398 234.859H485.64C482.964 234.859 480.795 237.029 480.795 239.708C480.795 242.386 482.964 244.557 485.64 244.557Z" fill="white"/>
<path d="M485.64 270.417H524.398C527.073 270.417 529.242 268.246 529.242 265.568C529.242 262.89 527.073 260.719 524.398 260.719H485.64C482.964 260.719 480.795 262.89 480.795 265.568C480.795 268.246 482.964 270.417 485.64 270.417Z" fill="white"/>
<path d="M485.64 296.277H524.398C527.073 296.277 529.242 294.107 529.242 291.428C529.242 288.75 527.073 286.58 524.398 286.58H485.64C482.964 286.58 480.795 288.75 480.795 291.428C480.795 294.107 482.964 296.277 485.64 296.277Z" fill="white"/>
<path d="M346.759 121.718C349.434 121.718 351.604 119.547 351.604 116.869V110.404C351.604 107.726 349.434 105.555 346.759 105.555C344.083 105.555 341.914 107.726 341.914 110.404V116.869C341.914 119.548 344.083 121.718 346.759 121.718Z" fill="white"/>
<path d="M366.136 121.718C368.811 121.718 370.98 119.547 370.98 116.869V110.404C370.98 107.726 368.811 105.555 366.136 105.555C363.46 105.555 361.291 107.726 361.291 110.404V116.869C361.292 119.548 363.46 121.718 366.136 121.718Z" fill="white"/>
<path d="M385.517 121.718C388.192 121.718 390.361 119.547 390.361 116.869V110.404C390.361 107.726 388.192 105.555 385.517 105.555C382.841 105.555 380.672 107.726 380.672 110.404V116.869C380.672 119.548 382.841 121.718 385.517 121.718Z" fill="white"/>
<path d="M404.896 121.718C407.571 121.718 409.74 119.547 409.74 116.869V110.404C409.74 107.726 407.571 105.555 404.896 105.555C402.22 105.555 400.051 107.726 400.051 110.404V116.869C400.051 119.548 402.22 121.718 404.896 121.718Z" fill="white"/>
<path d="M424.274 121.718C426.95 121.718 429.119 119.547 429.119 116.869V110.404C429.119 107.726 426.95 105.555 424.274 105.555C421.599 105.555 419.43 107.726 419.43 110.404V116.869C419.43 119.548 421.599 121.718 424.274 121.718Z" fill="white"/>
<path d="M443.653 121.718C446.329 121.718 448.498 119.547 448.498 116.869V110.404C448.498 107.726 446.329 105.555 443.653 105.555C440.978 105.555 438.809 107.726 438.809 110.404V116.869C438.809 119.548 440.978 121.718 443.653 121.718Z" fill="white"/>
<path d="M346.759 154.044C349.434 154.044 351.604 151.873 351.604 149.195V142.73C351.604 140.051 349.434 137.881 346.759 137.881C344.083 137.881 341.914 140.051 341.914 142.73V149.195C341.914 151.873 344.083 154.044 346.759 154.044Z" fill="white"/>
<path d="M366.136 154.044C368.811 154.044 370.98 151.873 370.98 149.195V142.73C370.98 140.051 368.811 137.881 366.136 137.881C363.46 137.881 361.291 140.051 361.291 142.73V149.195C361.292 151.873 363.46 154.044 366.136 154.044Z" fill="white"/>
<path d="M385.517 154.044C388.192 154.044 390.361 151.873 390.361 149.195V142.73C390.361 140.051 388.192 137.881 385.517 137.881C382.841 137.881 380.672 140.051 380.672 142.73V149.195C380.672 151.873 382.841 154.044 385.517 154.044Z" fill="white"/>
<path d="M404.896 154.044C407.571 154.044 409.74 151.873 409.74 149.195V142.73C409.74 140.051 407.571 137.881 404.896 137.881C402.22 137.881 400.051 140.051 400.051 142.73V149.195C400.051 151.873 402.22 154.044 404.896 154.044Z" fill="white"/>
<path d="M424.274 154.044C426.95 154.044 429.119 151.873 429.119 149.195V142.73C429.119 140.051 426.95 137.881 424.274 137.881C421.599 137.881 419.43 140.051 419.43 142.73V149.195C419.43 151.873 421.599 154.044 424.274 154.044Z" fill="white"/>
<path d="M443.653 154.044C446.329 154.044 448.498 151.873 448.498 149.195V142.73C448.498 140.051 446.329 137.881 443.653 137.881C440.978 137.881 438.809 140.051 438.809 142.73V149.195C438.809 151.873 440.978 154.044 443.653 154.044Z" fill="white"/>
<path d="M346.759 186.369C349.434 186.369 351.604 184.199 351.604 181.52V175.055C351.604 172.377 349.434 170.207 346.759 170.207C344.083 170.207 341.914 172.377 341.914 175.055V181.52C341.914 184.199 344.083 186.369 346.759 186.369Z" fill="white"/>
<path d="M366.136 186.369C368.811 186.369 370.98 184.199 370.98 181.52V175.055C370.98 172.377 368.811 170.207 366.136 170.207C363.46 170.207 361.291 172.377 361.291 175.055V181.52C361.292 184.199 363.46 186.369 366.136 186.369Z" fill="white"/>
<path d="M385.517 186.369C388.192 186.369 390.361 184.199 390.361 181.52V175.055C390.361 172.377 388.192 170.207 385.517 170.207C382.841 170.207 380.672 172.377 380.672 175.055V181.52C380.672 184.199 382.841 186.369 385.517 186.369Z" fill="white"/>
<path d="M404.896 186.369C407.571 186.369 409.74 184.199 409.74 181.52V175.055C409.74 172.377 407.571 170.207 404.896 170.207C402.22 170.207 400.051 172.377 400.051 175.055V181.52C400.051 184.199 402.22 186.369 404.896 186.369Z" fill="white"/>
<path d="M424.274 186.369C426.95 186.369 429.119 184.199 429.119 181.52V175.055C429.119 172.377 426.95 170.207 424.274 170.207C421.599 170.207 419.43 172.377 419.43 175.055V181.52C419.43 184.199 421.599 186.369 424.274 186.369Z" fill="white"/>
<path d="M443.653 186.369C446.329 186.369 448.498 184.199 448.498 181.52V175.055C448.498 172.377 446.329 170.207 443.653 170.207C440.978 170.207 438.809 172.377 438.809 175.055V181.52C438.809 184.199 440.978 186.369 443.653 186.369Z" fill="white"/>
<path d="M346.759 218.696C349.434 218.696 351.604 216.525 351.604 213.847V207.382C351.604 204.704 349.434 202.533 346.759 202.533C344.083 202.533 341.914 204.704 341.914 207.382V213.847C341.914 216.525 344.083 218.696 346.759 218.696Z" fill="white"/>
<path d="M366.136 218.696C368.811 218.696 370.98 216.525 370.98 213.847V207.382C370.98 204.704 368.811 202.533 366.136 202.533C363.46 202.533 361.291 204.704 361.291 207.382V213.847C361.292 216.525 363.46 218.696 366.136 218.696Z" fill="white"/>
<path d="M385.517 218.696C388.192 218.696 390.361 216.525 390.361 213.847V207.382C390.361 204.704 388.192 202.533 385.517 202.533C382.841 202.533 380.672 204.704 380.672 207.382V213.847C380.672 216.525 382.841 218.696 385.517 218.696Z" fill="white"/>
<path d="M404.896 218.696C407.571 218.696 409.74 216.525 409.74 213.847V207.382C409.74 204.704 407.571 202.533 404.896 202.533C402.22 202.533 400.051 204.704 400.051 207.382V213.847C400.051 216.525 402.22 218.696 404.896 218.696Z" fill="white"/>
<path d="M424.274 218.696C426.95 218.696 429.119 216.525 429.119 213.847V207.382C429.119 204.704 426.95 202.533 424.274 202.533C421.599 202.533 419.43 204.704 419.43 207.382V213.847C419.43 216.525 421.599 218.696 424.274 218.696Z" fill="white"/>
<path d="M443.653 218.696C446.329 218.696 448.498 216.525 448.498 213.847V207.382C448.498 204.704 446.329 202.533 443.653 202.533C440.978 202.533 438.809 204.704 438.809 207.382V213.847C438.809 216.525 440.978 218.696 443.653 218.696Z" fill="white"/>
<path d="M346.759 251.022C349.434 251.022 351.604 248.851 351.604 246.173V239.708C351.604 237.029 349.434 234.859 346.759 234.859C344.083 234.859 341.914 237.029 341.914 239.708V246.173C341.914 248.852 344.083 251.022 346.759 251.022Z" fill="white"/>
<path d="M366.136 251.022C368.811 251.022 370.98 248.851 370.98 246.173V239.708C370.98 237.029 368.811 234.859 366.136 234.859C363.46 234.859 361.291 237.029 361.291 239.708V246.173C361.292 248.852 363.46 251.022 366.136 251.022Z" fill="white"/>
<path d="M385.517 251.022C388.192 251.022 390.361 248.851 390.361 246.173V239.708C390.361 237.029 388.192 234.859 385.517 234.859C382.841 234.859 380.672 237.029 380.672 239.708V246.173C380.672 248.852 382.841 251.022 385.517 251.022Z" fill="white"/>
<path d="M404.896 251.022C407.571 251.022 409.74 248.851 409.74 246.173V239.708C409.74 237.029 407.571 234.859 404.896 234.859C402.22 234.859 400.051 237.029 400.051 239.708V246.173C400.051 248.852 402.22 251.022 404.896 251.022Z" fill="white"/>
<path d="M424.274 251.022C426.95 251.022 429.119 248.851 429.119 246.173V239.708C429.119 237.029 426.95 234.859 424.274 234.859C421.599 234.859 419.43 237.029 419.43 239.708V246.173C419.43 248.852 421.599 251.022 424.274 251.022Z" fill="white"/>
<path d="M443.653 251.022C446.329 251.022 448.498 248.851 448.498 246.173V239.708C448.498 237.029 446.329 234.859 443.653 234.859C440.978 234.859 438.809 237.029 438.809 239.708V246.173C438.809 248.852 440.978 251.022 443.653 251.022Z" fill="white"/>
<path d="M346.759 283.347C349.434 283.347 351.604 281.177 351.604 278.498V272.033C351.604 269.355 349.434 267.185 346.759 267.185C344.083 267.185 341.914 269.355 341.914 272.033V278.498C341.914 281.177 344.083 283.347 346.759 283.347Z" fill="white"/>
<path d="M366.136 283.347C368.811 283.347 370.98 281.177 370.98 278.498V272.033C370.98 269.355 368.811 267.185 366.136 267.185C363.46 267.185 361.291 269.355 361.291 272.033V278.498C361.292 281.177 363.46 283.347 366.136 283.347Z" fill="white"/>
<path d="M385.517 283.347C388.192 283.347 390.361 281.177 390.361 278.498V272.033C390.361 269.355 388.192 267.185 385.517 267.185C382.841 267.185 380.672 269.355 380.672 272.033V278.498C380.672 281.177 382.841 283.347 385.517 283.347Z" fill="white"/>
<path d="M404.896 283.347C407.571 283.347 409.74 281.177 409.74 278.498V272.033C409.74 269.355 407.571 267.185 404.896 267.185C402.22 267.185 400.051 269.355 400.051 272.033V278.498C400.051 281.177 402.22 283.347 404.896 283.347Z" fill="white"/>
<path d="M424.274 283.347C426.95 283.347 429.119 281.177 429.119 278.498V272.033C429.119 269.355 426.95 267.185 424.274 267.185C421.599 267.185 419.43 269.355 419.43 272.033V278.498C419.43 281.177 421.599 283.347 424.274 283.347Z" fill="white"/>
<path d="M443.653 283.347C446.329 283.347 448.498 281.177 448.498 278.498V272.033C448.498 269.355 446.329 267.185 443.653 267.185C440.978 267.185 438.809 269.355 438.809 272.033V278.498C438.809 281.177 440.978 283.347 443.653 283.347Z" fill="white"/>
</g>
<g opacity="0.5">
<path d="M283.951 308.034H275.022V26.8633C275.022 23.8953 272.623 21.4908 269.664 21.4908H169.656C166.697 21.4908 164.299 23.8953 164.299 26.8633V50.1447H153.584V26.8633C153.584 23.8953 151.185 21.4908 148.227 21.4908H125.01V5.37254C125.01 2.40454 122.611 0 119.653 0C116.694 0 114.295 2.40454 114.295 5.37254V21.4908H91.0793C88.1203 21.4908 85.7219 23.8953 85.7219 26.8633V50.1447H69.649C66.69 50.1447 64.2916 52.5493 64.2916 55.5173V100.289H19.6453C16.6863 100.289 14.2879 102.694 14.2879 105.662V308.033H5.35742C2.39839 308.033 0 310.437 0 313.405C0 316.373 2.39901 318.779 5.35742 318.779H283.951C286.91 318.779 289.308 316.374 289.308 313.406C289.308 310.438 286.909 308.034 283.951 308.034ZM96.4361 32.2359H142.868V50.1447H96.4361V32.2359ZM78.5776 308.034H75.0058V299.079C75.0058 296.111 72.6068 293.707 69.6484 293.707C66.69 293.707 64.291 296.111 64.291 299.079V308.034H60.7191V290.125H78.5776V308.034ZM114.295 170.134V179.377V308.034H89.2925V284.752C89.2925 281.784 86.8935 279.38 83.9351 279.38H55.3617C52.4027 279.38 50.0043 281.784 50.0043 284.752V308.034H25.0021V111.035H114.295V170.134ZM119.652 100.29H75.0058V60.8904H164.298V164.762H125.01V146.853H141.083C144.042 146.853 146.44 144.448 146.44 141.48C146.44 138.512 144.041 136.108 141.083 136.108H125.01V118.199H141.083C144.042 118.199 146.44 115.794 146.44 112.826C146.44 109.858 144.041 107.454 141.083 107.454H125.01V105.663C125.01 102.695 122.611 100.29 119.652 100.29ZM214.303 308.034H125.01V179.377V175.508H214.303V308.034ZM264.306 308.034H225.017V170.134V162.971C225.017 160.003 222.618 157.598 219.66 157.598C216.702 157.598 214.303 160.003 214.303 162.971V164.761H203.588V162.971C203.588 160.003 201.189 157.598 198.23 157.598C195.272 157.598 192.873 160.003 192.873 162.971V164.761H175.014V55.5179V32.2359H264.307V308.034H264.306Z" fill="white"/>
<path d="M148.227 297.289C151.186 297.289 153.584 294.883 153.584 291.916V191.627C153.584 188.659 151.185 186.254 148.227 186.254C145.268 186.254 142.869 188.659 142.869 191.627V291.917C142.869 294.884 145.268 297.289 148.227 297.289Z" fill="white"/>
<path d="M169.656 297.289C172.615 297.289 175.014 294.883 175.014 291.916V191.627C175.014 188.659 172.615 186.254 169.656 186.254C166.698 186.254 164.299 188.659 164.299 191.627V291.917C164.298 294.884 166.697 297.289 169.656 297.289Z" fill="white"/>
<path d="M191.088 297.289C194.047 297.289 196.445 294.883 196.445 291.916V191.627C196.445 188.659 194.046 186.254 191.088 186.254C188.129 186.254 185.73 188.659 185.73 191.627V291.917C185.73 294.884 188.129 297.289 191.088 297.289Z" fill="white"/>
<path d="M198.23 68.0538C201.19 68.0538 203.588 65.6492 203.588 62.6812V55.518C203.588 52.55 201.189 50.1455 198.23 50.1455C195.272 50.1455 192.873 52.55 192.873 55.518V62.6819C192.873 65.6492 195.271 68.0538 198.23 68.0538Z" fill="white"/>
<path d="M219.662 68.0538C222.621 68.0538 225.02 65.6492 225.02 62.6812V55.518C225.02 52.55 222.621 50.1455 219.662 50.1455C216.704 50.1455 214.305 52.55 214.305 55.518V62.6819C214.305 65.6492 216.703 68.0538 219.662 68.0538Z" fill="white"/>
<path d="M241.092 68.0538C244.051 68.0538 246.449 65.6492 246.449 62.6812V55.518C246.449 52.55 244.05 50.1455 241.092 50.1455C238.133 50.1455 235.734 52.55 235.734 55.518V62.6819C235.734 65.6492 238.133 68.0538 241.092 68.0538Z" fill="white"/>
<path d="M198.23 103.871C201.19 103.871 203.588 101.467 203.588 98.4987V91.3349C203.588 88.3669 201.189 85.9624 198.23 85.9624C195.272 85.9624 192.873 88.3669 192.873 91.3349V98.4987C192.873 101.467 195.271 103.871 198.23 103.871Z" fill="white"/>
<path d="M219.662 103.871C222.621 103.871 225.02 101.467 225.02 98.4987V91.3349C225.02 88.3669 222.621 85.9624 219.662 85.9624C216.704 85.9624 214.305 88.3669 214.305 91.3349V98.4987C214.305 101.467 216.703 103.871 219.662 103.871Z" fill="white"/>
<path d="M241.092 103.871C244.051 103.871 246.449 101.467 246.449 98.4987V91.3349C246.449 88.3669 244.05 85.9624 241.092 85.9624C238.133 85.9624 235.734 88.3669 235.734 91.3349V98.4987C235.734 101.467 238.133 103.871 241.092 103.871Z" fill="white"/>
<path d="M198.23 139.69C201.19 139.69 203.588 137.285 203.588 134.317V127.153C203.588 124.185 201.189 121.781 198.23 121.781C195.272 121.781 192.873 124.185 192.873 127.153V134.317C192.873 137.284 195.271 139.69 198.23 139.69Z" fill="white"/>
<path d="M219.662 139.69C222.621 139.69 225.02 137.285 225.02 134.317V127.153C225.02 124.185 222.621 121.781 219.662 121.781C216.704 121.781 214.305 124.185 214.305 127.153V134.317C214.305 137.284 216.703 139.69 219.662 139.69Z" fill="white"/>
<path d="M241.092 139.69C244.051 139.69 246.449 137.285 246.449 134.317V127.153C246.449 124.185 244.05 121.781 241.092 121.781C238.133 121.781 235.734 124.185 235.734 127.153V134.317C235.734 137.284 238.133 139.69 241.092 139.69Z" fill="white"/>
<path d="M48.2188 154.017C51.1778 154.017 53.5762 151.612 53.5762 148.644V141.48C53.5762 138.512 51.1772 136.108 48.2188 136.108C45.2603 136.108 42.8613 138.512 42.8613 141.48V148.644C42.8613 151.612 45.2603 154.017 48.2188 154.017Z" fill="white"/>
<path d="M69.6484 154.017C72.6075 154.017 75.0059 151.612 75.0059 148.644V141.48C75.0059 138.512 72.6069 136.108 69.6484 136.108C66.69 136.108 64.291 138.512 64.291 141.48V148.644C64.291 151.612 66.6894 154.017 69.6484 154.017Z" fill="white"/>
<path d="M91.0781 154.017C94.0372 154.017 96.4356 151.612 96.4356 148.644V141.48C96.4356 138.512 94.0365 136.108 91.0781 136.108C88.1197 136.108 85.7207 138.512 85.7207 141.48V148.644C85.7207 151.612 88.1191 154.017 91.0781 154.017Z" fill="white"/>
<path d="M48.2188 189.835C51.1778 189.835 53.5762 187.43 53.5762 184.462V177.298C53.5762 174.33 51.1772 171.926 48.2188 171.926C45.2603 171.926 42.8613 174.33 42.8613 177.298V184.462C42.8613 187.429 45.2603 189.835 48.2188 189.835Z" fill="white"/>
<path d="M69.6484 189.835C72.6075 189.835 75.0059 187.43 75.0059 184.462V177.298C75.0059 174.33 72.6069 171.926 69.6484 171.926C66.69 171.926 64.291 174.33 64.291 177.298V184.462C64.291 187.429 66.6894 189.835 69.6484 189.835Z" fill="white"/>
<path d="M91.0781 189.835C94.0372 189.835 96.4356 187.43 96.4356 184.462V177.298C96.4356 174.33 94.0365 171.926 91.0781 171.926C88.1197 171.926 85.7207 174.33 85.7207 177.298V184.462C85.7207 187.429 88.1191 189.835 91.0781 189.835Z" fill="white"/>
<path d="M48.2188 225.652C51.1778 225.652 53.5762 223.248 53.5762 220.28V213.116C53.5762 210.148 51.1772 207.743 48.2188 207.743C45.2603 207.743 42.8613 210.148 42.8613 213.116V220.28C42.8613 223.248 45.2603 225.652 48.2188 225.652Z" fill="white"/>
<path d="M69.6484 225.652C72.6075 225.652 75.0059 223.248 75.0059 220.28V213.116C75.0059 210.148 72.6069 207.743 69.6484 207.743C66.69 207.743 64.291 210.148 64.291 213.116V220.28C64.291 223.248 66.6894 225.652 69.6484 225.652Z" fill="white"/>
<path d="M91.0781 225.652C94.0372 225.652 96.4356 223.248 96.4356 220.28V213.116C96.4356 210.148 94.0365 207.743 91.0781 207.743C88.1197 207.743 85.7207 210.148 85.7207 213.116V220.28C85.7207 223.248 88.1191 225.652 91.0781 225.652Z" fill="white"/>
<path d="M48.2188 261.47C51.1778 261.47 53.5762 259.065 53.5762 256.097V248.934C53.5762 245.966 51.1772 243.561 48.2188 243.561C45.2603 243.561 42.8613 245.966 42.8613 248.934V256.097C42.8613 259.065 45.2603 261.47 48.2188 261.47Z" fill="white"/>
<path d="M69.6484 261.47C72.6075 261.47 75.0059 259.065 75.0059 256.097V248.934C75.0059 245.966 72.6069 243.561 69.6484 243.561C66.69 243.561 64.291 245.966 64.291 248.934V256.097C64.291 259.065 66.6894 261.47 69.6484 261.47Z" fill="white"/>
<path d="M91.0781 261.47C94.0372 261.47 96.4356 259.065 96.4356 256.097V248.934C96.4356 245.966 94.0365 243.561 91.0781 243.561C88.1197 243.561 85.7207 245.966 85.7207 248.934V256.097C85.7207 259.065 88.1191 261.47 91.0781 261.47Z" fill="white"/>
<path d="M241.092 175.508C244.051 175.508 246.449 173.103 246.449 170.135V162.971C246.449 160.003 244.05 157.599 241.092 157.599C238.133 157.599 235.734 160.003 235.734 162.971V170.135C235.734 173.102 238.133 175.508 241.092 175.508Z" fill="white"/>
<path d="M241.092 211.325C244.051 211.325 246.449 208.921 246.449 205.953V198.789C246.449 195.821 244.05 193.417 241.092 193.417C238.133 193.417 235.734 195.821 235.734 198.789V205.953C235.734 208.92 238.133 211.325 241.092 211.325Z" fill="white"/>
<path d="M241.092 247.143C244.051 247.143 246.449 244.738 246.449 241.77V234.606C246.449 231.638 244.05 229.234 241.092 229.234C238.133 229.234 235.734 231.638 235.734 234.606V241.77C235.734 244.738 238.133 247.143 241.092 247.143Z" fill="white"/>
<path d="M241.092 282.961C244.051 282.961 246.449 280.557 246.449 277.589V270.425C246.449 267.457 244.05 265.052 241.092 265.052C238.133 265.052 235.734 267.457 235.734 270.425V277.589C235.734 280.556 238.133 282.961 241.092 282.961Z" fill="white"/>
<path d="M146.441 84.1719C146.441 81.2039 144.042 78.7993 141.083 78.7993H98.2227C95.2636 78.7993 92.8652 81.2039 92.8652 84.1719C92.8652 87.1399 95.2642 89.5444 98.2227 89.5444H141.083C144.042 89.5444 146.441 87.1399 146.441 84.1719Z" fill="white"/>
</g>
</svg>
