<svg width="409" height="256" viewBox="0 0 409 256" fill="none" xmlns="http://www.w3.org/2000/svg">
<path d="M405.426 248.867H403.62C404.017 247.75 404.235 246.549 404.235 245.299C404.235 242.654 403.27 240.162 401.566 238.236C401.756 237.435 401.853 236.614 401.853 235.788C401.853 231.138 398.865 227.173 394.705 225.701V100.241C394.705 98.2705 393.105 96.6738 391.131 96.6738H337.523V62.193C337.523 60.2227 335.923 58.626 333.95 58.626H229.117C227.144 58.626 225.543 60.2227 225.543 62.193V225.701C221.384 227.173 218.396 231.138 218.396 235.787C218.396 236.613 218.493 237.435 218.682 238.235C216.978 240.162 216.013 242.653 216.013 245.298C216.013 246.549 216.231 247.75 216.628 248.866H214.822C212.848 248.866 211.248 250.463 211.248 252.433C211.248 254.403 212.848 256 214.822 256H405.426C407.4 256 409 254.403 409 252.433C409 250.463 407.4 248.867 405.426 248.867ZM337.523 103.808H387.557V225.702C387.151 225.847 386.752 226.014 386.366 226.207C384.896 225.475 383.268 225.087 381.601 225.087C379.934 225.087 378.306 225.475 376.836 226.207C375.366 225.475 373.738 225.087 372.071 225.087C370.404 225.087 368.776 225.475 367.306 226.207C365.836 225.475 364.208 225.087 362.541 225.087C360.874 225.087 359.246 225.475 357.776 226.207C356.306 225.475 354.678 225.087 353.011 225.087C351.344 225.087 349.716 225.475 348.246 226.207C346.776 225.475 345.148 225.087 343.481 225.087C341.814 225.087 340.186 225.475 338.716 226.207C338.329 226.014 337.931 225.847 337.525 225.702V103.808H337.523ZM232.691 65.76H330.376V100.241V225.702C329.969 225.847 329.571 226.014 329.185 226.207C327.715 225.475 326.087 225.087 324.42 225.087C323.191 225.087 321.984 225.3 320.846 225.703V223.897C320.846 221.926 319.246 220.33 317.272 220.33C315.298 220.33 313.698 221.926 313.698 223.897V225.155C312.45 225.294 311.242 225.651 310.124 226.207C309.007 225.651 307.798 225.294 306.55 225.155V223.897C306.55 221.926 304.95 220.33 302.976 220.33C301.003 220.33 299.403 221.926 299.403 223.897V225.702C298.264 225.299 297.058 225.086 295.829 225.086C294.6 225.086 293.393 225.299 292.255 225.702V223.897C292.255 221.926 290.655 220.33 288.681 220.33C286.707 220.33 285.107 221.926 285.107 223.897V225.155C283.859 225.294 282.651 225.651 281.533 226.207C280.416 225.651 279.207 225.294 277.96 225.155V223.897C277.96 221.926 276.359 220.33 274.386 220.33C272.412 220.33 270.812 221.926 270.812 223.897V225.702C269.674 225.299 268.467 225.086 267.238 225.086C266.009 225.086 264.802 225.299 263.664 225.702V223.897C263.664 221.926 262.064 220.33 260.09 220.33C258.117 220.33 256.516 221.926 256.516 223.897V225.155C255.269 225.294 254.06 225.651 252.943 226.207C251.825 225.651 250.617 225.294 249.369 225.155V223.897C249.369 221.926 247.769 220.33 245.795 220.33C243.821 220.33 242.221 221.926 242.221 223.897V225.702C241.083 225.299 239.876 225.086 238.647 225.086C236.98 225.086 235.352 225.475 233.882 226.206C233.495 226.013 233.097 225.846 232.691 225.702V65.76ZM393.522 248.866C393.516 248.866 393.51 248.867 393.504 248.867H226.754C226.747 248.867 226.741 248.866 226.735 248.866C224.764 248.866 223.161 247.266 223.161 245.299C223.161 244.08 223.781 242.957 224.819 242.294C226.418 241.273 226.939 239.183 226.005 237.534C225.699 236.993 225.544 236.405 225.544 235.788C225.544 233.821 227.147 232.221 229.118 232.221C230.239 232.221 231.03 232.719 231.496 233.136C232.854 234.353 234.912 234.353 236.27 233.136C236.736 232.719 237.527 232.221 238.648 232.221C239.769 232.221 240.561 232.719 241.027 233.136C242.385 234.353 244.442 234.353 245.8 233.136C246.267 232.719 247.058 232.221 248.179 232.221C249.3 232.221 250.091 232.719 250.558 233.136C251.916 234.353 253.973 234.353 255.331 233.136C255.798 232.719 256.589 232.221 257.71 232.221C258.831 232.221 259.622 232.719 260.089 233.136C261.447 234.353 263.504 234.353 264.862 233.136C265.328 232.719 266.119 232.221 267.241 232.221C268.362 232.221 269.153 232.719 269.62 233.136C270.978 234.353 273.035 234.353 274.393 233.136C274.859 232.719 275.65 232.221 276.771 232.221C277.892 232.221 278.684 232.719 279.15 233.136C280.508 234.353 282.565 234.353 283.923 233.136C284.39 232.719 285.181 232.221 286.302 232.221C287.423 232.221 288.215 232.719 288.681 233.136C290.039 234.353 292.096 234.353 293.454 233.136C293.921 232.719 294.712 232.221 295.833 232.221C296.954 232.221 297.745 232.719 298.212 233.136C299.57 234.353 301.627 234.353 302.985 233.136C303.452 232.719 304.243 232.221 305.364 232.221C306.485 232.221 307.276 232.719 307.743 233.136C309.101 234.353 311.158 234.353 312.516 233.136C312.982 232.719 313.773 232.221 314.895 232.221C316.015 232.221 316.807 232.719 317.273 233.136C318.631 234.353 320.688 234.353 322.047 233.136C322.513 232.719 323.304 232.221 324.425 232.221C325.546 232.221 326.338 232.719 326.804 233.136C328.162 234.353 330.219 234.353 331.577 233.136C332.044 232.719 332.835 232.221 333.956 232.221C335.077 232.221 335.868 232.719 336.335 233.136C337.693 234.353 339.75 234.353 341.108 233.136C341.575 232.719 342.366 232.221 343.487 232.221C344.608 232.221 345.399 232.719 345.866 233.136C347.224 234.353 349.281 234.353 350.639 233.136C351.105 232.719 351.896 232.221 353.018 232.221C354.138 232.221 354.93 232.719 355.396 233.136C356.754 234.353 358.812 234.353 360.17 233.136C360.636 232.719 361.427 232.221 362.548 232.221C363.669 232.221 364.461 232.719 364.927 233.136C366.285 234.353 368.342 234.353 369.7 233.136C370.167 232.719 370.958 232.221 372.079 232.221C373.2 232.221 373.991 232.719 374.458 233.136C375.816 234.353 377.873 234.353 379.231 233.136C379.698 232.719 380.489 232.221 381.61 232.221C382.731 232.221 383.522 232.719 383.989 233.136C385.347 234.353 387.404 234.353 388.762 233.136C389.228 232.719 390.019 232.221 391.141 232.221C393.112 232.221 394.715 233.821 394.715 235.788C394.715 236.406 394.559 236.993 394.253 237.534C393.319 239.184 393.84 241.273 395.44 242.294C396.478 242.957 397.098 244.08 397.098 245.299C397.096 247.266 395.493 248.866 393.522 248.866Z" fill="#F2F4FF"/>
<path d="M348.246 122.832H376.836C378.81 122.832 380.41 121.236 380.41 119.265C380.41 117.295 378.81 115.698 376.836 115.698H348.246C346.272 115.698 344.672 117.295 344.672 119.265C344.672 121.236 346.272 122.832 348.246 122.832Z" fill="#F2F4FF"/>
<path d="M348.246 141.857H376.836C378.81 141.857 380.41 140.26 380.41 138.29C380.41 136.319 378.81 134.723 376.836 134.723H348.246C346.272 134.723 344.672 136.319 344.672 138.29C344.672 140.26 346.272 141.857 348.246 141.857Z" fill="#F2F4FF"/>
<path d="M348.246 160.88H376.836C378.81 160.88 380.41 159.283 380.41 157.313C380.41 155.343 378.81 153.746 376.836 153.746H348.246C346.272 153.746 344.672 155.343 344.672 157.313C344.672 159.283 346.272 160.88 348.246 160.88Z" fill="#F2F4FF"/>
<path d="M348.246 179.905H376.836C378.81 179.905 380.41 178.308 380.41 176.338C380.41 174.367 378.81 172.771 376.836 172.771H348.246C346.272 172.771 344.672 174.367 344.672 176.338C344.672 178.308 346.272 179.905 348.246 179.905Z" fill="#F2F4FF"/>
<path d="M348.246 198.928H376.836C378.81 198.928 380.41 197.331 380.41 195.361C380.41 193.391 378.81 191.794 376.836 191.794H348.246C346.272 191.794 344.672 193.391 344.672 195.361C344.672 197.331 346.272 198.928 348.246 198.928Z" fill="#F2F4FF"/>
<path d="M348.246 217.951H376.836C378.81 217.951 380.41 216.355 380.41 214.384C380.41 212.414 378.81 210.817 376.836 210.817H348.246C346.272 210.817 344.672 212.414 344.672 214.384C344.672 216.355 346.272 217.951 348.246 217.951Z" fill="#F2F4FF"/>
<path d="M245.795 89.5393C247.768 89.5393 249.368 87.9426 249.368 85.9723V81.2164C249.368 79.2461 247.768 77.6494 245.795 77.6494C243.821 77.6494 242.221 79.2461 242.221 81.2164V85.9723C242.221 87.943 243.821 89.5393 245.795 89.5393Z" fill="#F2F4FF"/>
<path d="M260.089 89.5393C262.063 89.5393 263.663 87.9426 263.663 85.9723V81.2164C263.663 79.2461 262.063 77.6494 260.089 77.6494C258.116 77.6494 256.516 79.2461 256.516 81.2164V85.9723C256.516 87.943 258.116 89.5393 260.089 89.5393Z" fill="#F2F4FF"/>
<path d="M274.386 89.5393C276.36 89.5393 277.96 87.9426 277.96 85.9723V81.2164C277.96 79.2461 276.36 77.6494 274.386 77.6494C272.413 77.6494 270.812 79.2461 270.812 81.2164V85.9723C270.812 87.943 272.413 89.5393 274.386 89.5393Z" fill="#F2F4FF"/>
<path d="M288.681 89.5393C290.655 89.5393 292.255 87.9426 292.255 85.9723V81.2164C292.255 79.2461 290.655 77.6494 288.681 77.6494C286.708 77.6494 285.107 79.2461 285.107 81.2164V85.9723C285.107 87.943 286.708 89.5393 288.681 89.5393Z" fill="#F2F4FF"/>
<path d="M302.976 89.5393C304.95 89.5393 306.55 87.9426 306.55 85.9723V81.2164C306.55 79.2461 304.95 77.6494 302.976 77.6494C301.003 77.6494 299.402 79.2461 299.402 81.2164V85.9723C299.402 87.943 301.003 89.5393 302.976 89.5393Z" fill="#F2F4FF"/>
<path d="M317.271 89.5393C319.245 89.5393 320.845 87.9426 320.845 85.9723V81.2164C320.845 79.2461 319.245 77.6494 317.271 77.6494C315.297 77.6494 313.697 79.2461 313.697 81.2164V85.9723C313.697 87.943 315.297 89.5393 317.271 89.5393Z" fill="#F2F4FF"/>
<path d="M245.795 113.32C247.768 113.32 249.368 111.723 249.368 109.753V104.997C249.368 103.026 247.768 101.43 245.795 101.43C243.821 101.43 242.221 103.026 242.221 104.997V109.753C242.221 111.723 243.821 113.32 245.795 113.32Z" fill="#F2F4FF"/>
<path d="M260.089 113.32C262.063 113.32 263.663 111.723 263.663 109.753V104.997C263.663 103.026 262.063 101.43 260.089 101.43C258.116 101.43 256.516 103.026 256.516 104.997V109.753C256.516 111.723 258.116 113.32 260.089 113.32Z" fill="#F2F4FF"/>
<path d="M274.386 113.32C276.36 113.32 277.96 111.723 277.96 109.753V104.997C277.96 103.026 276.36 101.43 274.386 101.43C272.413 101.43 270.812 103.026 270.812 104.997V109.753C270.812 111.723 272.413 113.32 274.386 113.32Z" fill="#F2F4FF"/>
<path d="M288.681 113.32C290.655 113.32 292.255 111.723 292.255 109.753V104.997C292.255 103.026 290.655 101.43 288.681 101.43C286.708 101.43 285.107 103.026 285.107 104.997V109.753C285.107 111.723 286.708 113.32 288.681 113.32Z" fill="#F2F4FF"/>
<path d="M302.976 113.32C304.95 113.32 306.55 111.723 306.55 109.753V104.997C306.55 103.026 304.95 101.43 302.976 101.43C301.003 101.43 299.402 103.026 299.402 104.997V109.753C299.402 111.723 301.003 113.32 302.976 113.32Z" fill="#F2F4FF"/>
<path d="M317.271 113.32C319.245 113.32 320.845 111.723 320.845 109.753V104.997C320.845 103.026 319.245 101.43 317.271 101.43C315.297 101.43 313.697 103.026 313.697 104.997V109.753C313.697 111.723 315.297 113.32 317.271 113.32Z" fill="#F2F4FF"/>
<path d="M245.795 137.1C247.768 137.1 249.368 135.503 249.368 133.533V128.777C249.368 126.807 247.768 125.21 245.795 125.21C243.821 125.21 242.221 126.807 242.221 128.777V133.533C242.221 135.504 243.821 137.1 245.795 137.1Z" fill="#F2F4FF"/>
<path d="M260.089 137.1C262.063 137.1 263.663 135.503 263.663 133.533V128.777C263.663 126.807 262.063 125.21 260.089 125.21C258.116 125.21 256.516 126.807 256.516 128.777V133.533C256.516 135.504 258.116 137.1 260.089 137.1Z" fill="#F2F4FF"/>
<path d="M274.386 137.1C276.36 137.1 277.96 135.503 277.96 133.533V128.777C277.96 126.807 276.36 125.21 274.386 125.21C272.413 125.21 270.812 126.807 270.812 128.777V133.533C270.812 135.504 272.413 137.1 274.386 137.1Z" fill="#F2F4FF"/>
<path d="M288.681 137.1C290.655 137.1 292.255 135.503 292.255 133.533V128.777C292.255 126.807 290.655 125.21 288.681 125.21C286.708 125.21 285.107 126.807 285.107 128.777V133.533C285.107 135.504 286.708 137.1 288.681 137.1Z" fill="#F2F4FF"/>
<path d="M302.976 137.1C304.95 137.1 306.55 135.503 306.55 133.533V128.777C306.55 126.807 304.95 125.21 302.976 125.21C301.003 125.21 299.402 126.807 299.402 128.777V133.533C299.402 135.504 301.003 137.1 302.976 137.1Z" fill="#F2F4FF"/>
<path d="M317.271 137.1C319.245 137.1 320.845 135.503 320.845 133.533V128.777C320.845 126.807 319.245 125.21 317.271 125.21C315.297 125.21 313.697 126.807 313.697 128.777V133.533C313.697 135.504 315.297 137.1 317.271 137.1Z" fill="#F2F4FF"/>
<path d="M245.795 160.88C247.768 160.88 249.368 159.283 249.368 157.313V152.557C249.368 150.587 247.768 148.99 245.795 148.99C243.821 148.99 242.221 150.587 242.221 152.557V157.313C242.221 159.283 243.821 160.88 245.795 160.88Z" fill="#F2F4FF"/>
<path d="M260.089 160.88C262.063 160.88 263.663 159.283 263.663 157.313V152.557C263.663 150.587 262.063 148.99 260.089 148.99C258.116 148.99 256.516 150.587 256.516 152.557V157.313C256.516 159.283 258.116 160.88 260.089 160.88Z" fill="#F2F4FF"/>
<path d="M274.386 160.88C276.36 160.88 277.96 159.283 277.96 157.313V152.557C277.96 150.587 276.36 148.99 274.386 148.99C272.413 148.99 270.812 150.587 270.812 152.557V157.313C270.812 159.283 272.413 160.88 274.386 160.88Z" fill="#F2F4FF"/>
<path d="M288.681 160.88C290.655 160.88 292.255 159.283 292.255 157.313V152.557C292.255 150.587 290.655 148.99 288.681 148.99C286.708 148.99 285.107 150.587 285.107 152.557V157.313C285.107 159.283 286.708 160.88 288.681 160.88Z" fill="#F2F4FF"/>
<path d="M302.976 160.88C304.95 160.88 306.55 159.283 306.55 157.313V152.557C306.55 150.587 304.95 148.99 302.976 148.99C301.003 148.99 299.402 150.587 299.402 152.557V157.313C299.402 159.283 301.003 160.88 302.976 160.88Z" fill="#F2F4FF"/>
<path d="M317.271 160.88C319.245 160.88 320.845 159.283 320.845 157.313V152.557C320.845 150.587 319.245 148.99 317.271 148.99C315.297 148.99 313.697 150.587 313.697 152.557V157.313C313.697 159.283 315.297 160.88 317.271 160.88Z" fill="#F2F4FF"/>
<path d="M245.795 184.66C247.768 184.66 249.368 183.064 249.368 181.093V176.338C249.368 174.367 247.768 172.771 245.795 172.771C243.821 172.771 242.221 174.367 242.221 176.338V181.093C242.221 183.064 243.821 184.66 245.795 184.66Z" fill="#F2F4FF"/>
<path d="M260.089 184.66C262.063 184.66 263.663 183.064 263.663 181.093V176.338C263.663 174.367 262.063 172.771 260.089 172.771C258.116 172.771 256.516 174.367 256.516 176.338V181.093C256.516 183.064 258.116 184.66 260.089 184.66Z" fill="#F2F4FF"/>
<path d="M274.386 184.66C276.36 184.66 277.96 183.064 277.96 181.093V176.338C277.96 174.367 276.36 172.771 274.386 172.771C272.413 172.771 270.812 174.367 270.812 176.338V181.093C270.812 183.064 272.413 184.66 274.386 184.66Z" fill="#F2F4FF"/>
<path d="M288.681 184.66C290.655 184.66 292.255 183.064 292.255 181.093V176.338C292.255 174.367 290.655 172.771 288.681 172.771C286.708 172.771 285.107 174.367 285.107 176.338V181.093C285.107 183.064 286.708 184.66 288.681 184.66Z" fill="#F2F4FF"/>
<path d="M302.976 184.66C304.95 184.66 306.55 183.064 306.55 181.093V176.338C306.55 174.367 304.95 172.771 302.976 172.771C301.003 172.771 299.402 174.367 299.402 176.338V181.093C299.402 183.064 301.003 184.66 302.976 184.66Z" fill="#F2F4FF"/>
<path d="M317.271 184.66C319.245 184.66 320.845 183.064 320.845 181.093V176.338C320.845 174.367 319.245 172.771 317.271 172.771C315.297 172.771 313.697 174.367 313.697 176.338V181.093C313.697 183.064 315.297 184.66 317.271 184.66Z" fill="#F2F4FF"/>
<path d="M245.795 208.44C247.768 208.44 249.368 206.843 249.368 204.873V200.117C249.368 198.147 247.768 196.55 245.795 196.55C243.821 196.55 242.221 198.147 242.221 200.117V204.873C242.221 206.843 243.821 208.44 245.795 208.44Z" fill="#F2F4FF"/>
<path d="M260.089 208.44C262.063 208.44 263.663 206.843 263.663 204.873V200.117C263.663 198.147 262.063 196.55 260.089 196.55C258.116 196.55 256.516 198.147 256.516 200.117V204.873C256.516 206.843 258.116 208.44 260.089 208.44Z" fill="#F2F4FF"/>
<path d="M274.386 208.44C276.36 208.44 277.96 206.843 277.96 204.873V200.117C277.96 198.147 276.36 196.55 274.386 196.55C272.413 196.55 270.812 198.147 270.812 200.117V204.873C270.812 206.843 272.413 208.44 274.386 208.44Z" fill="#F2F4FF"/>
<path d="M288.681 208.44C290.655 208.44 292.255 206.843 292.255 204.873V200.117C292.255 198.147 290.655 196.55 288.681 196.55C286.708 196.55 285.107 198.147 285.107 200.117V204.873C285.107 206.843 286.708 208.44 288.681 208.44Z" fill="#F2F4FF"/>
<path d="M302.976 208.44C304.95 208.44 306.55 206.843 306.55 204.873V200.117C306.55 198.147 304.95 196.55 302.976 196.55C301.003 196.55 299.402 198.147 299.402 200.117V204.873C299.402 206.843 301.003 208.44 302.976 208.44Z" fill="#F2F4FF"/>
<path d="M317.271 208.44C319.245 208.44 320.845 206.843 320.845 204.873V200.117C320.845 198.147 319.245 196.55 317.271 196.55C315.297 196.55 313.697 198.147 313.697 200.117V204.873C313.697 206.843 315.297 208.44 317.271 208.44Z" fill="#F2F4FF"/>
<path d="M209.464 226.6H202.877V19.7615C202.877 17.5782 201.107 15.8093 198.925 15.8093H125.151C122.969 15.8093 121.199 17.5782 121.199 19.7615V36.8881H113.295V19.7615C113.295 17.5782 111.526 15.8093 109.343 15.8093H92.2169V3.95222C92.2169 1.76886 90.4472 0 88.2649 0C86.0825 0 84.3128 1.76886 84.3128 3.95222V15.8093H67.187C65.0042 15.8093 63.235 17.5782 63.235 19.7615V36.8881H51.3784C49.1956 36.8881 47.4263 38.657 47.4263 40.8404V73.7763H14.4919C12.3091 73.7763 10.5398 75.5451 10.5398 77.7285V226.599H3.95204C1.76924 226.599 0 228.368 0 230.551C0 232.735 1.76969 234.504 3.95204 234.504H209.464C211.647 234.504 213.416 232.735 213.416 230.552C213.416 228.369 211.646 226.6 209.464 226.6ZM71.1386 23.7138H105.39V36.8881H71.1386V23.7138ZM57.9648 226.6H55.33V220.012C55.33 217.829 53.5603 216.06 51.3779 216.06C49.1956 216.06 47.4259 217.829 47.4259 220.012V226.6H44.791V213.425H57.9648V226.6ZM84.3124 125.156V131.956V226.6H65.8689V209.473C65.8689 207.29 64.0992 205.521 61.9168 205.521H40.839C38.6562 205.521 36.8869 207.29 36.8869 209.473V226.6H18.4435V81.6812H84.3124V125.156ZM88.2644 73.7767H55.33V44.793H121.199V121.204H92.2169V108.03H104.073C106.256 108.03 108.026 106.261 108.026 104.078C108.026 101.894 106.256 100.125 104.073 100.125H92.2169V86.9511H104.073C106.256 86.9511 108.026 85.1822 108.026 82.9989C108.026 80.8155 106.256 79.0467 104.073 79.0467H92.2169V77.7294C92.2169 75.5456 90.4472 73.7767 88.2644 73.7767ZM158.086 226.6H92.2169V131.956V129.109H158.086V226.6ZM194.972 226.6H165.99V125.156V119.887C165.99 117.703 164.22 115.934 162.038 115.934C159.855 115.934 158.086 117.703 158.086 119.887V121.204H150.182V119.887C150.182 117.703 148.412 115.934 146.23 115.934C144.047 115.934 142.278 117.703 142.278 119.887V121.204H129.104V40.8408V23.7138H194.973V226.6H194.972Z" fill="#F2F4FF"/>
<path d="M109.343 218.695C111.525 218.695 113.295 216.926 113.295 214.743V140.967C113.295 138.784 111.525 137.015 109.343 137.015C107.16 137.015 105.391 138.784 105.391 140.967V214.744C105.391 216.926 107.16 218.695 109.343 218.695Z" fill="#F2F4FF"/>
<path d="M125.151 218.695C127.334 218.695 129.103 216.926 129.103 214.743V140.967C129.103 138.784 127.334 137.015 125.151 137.015C122.969 137.015 121.199 138.784 121.199 140.967V214.744C121.199 216.926 122.968 218.695 125.151 218.695Z" fill="#F2F4FF"/>
<path d="M140.96 218.695C143.143 218.695 144.912 216.926 144.912 214.743V140.967C144.912 138.784 143.142 137.015 140.96 137.015C138.778 137.015 137.008 138.784 137.008 140.967V214.744C137.008 216.926 138.778 218.695 140.96 218.695Z" fill="#F2F4FF"/>
<path d="M146.229 50.0626C148.412 50.0626 150.181 48.2937 150.181 46.1104V40.8409C150.181 38.6575 148.412 36.8887 146.229 36.8887C144.047 36.8887 142.277 38.6575 142.277 40.8409V46.1108C142.277 48.2937 144.047 50.0626 146.229 50.0626Z" fill="#F2F4FF"/>
<path d="M162.038 50.0626C164.221 50.0626 165.99 48.2937 165.99 46.1104V40.8409C165.99 38.6575 164.22 36.8887 162.038 36.8887C159.856 36.8887 158.086 38.6575 158.086 40.8409V46.1108C158.086 48.2937 159.855 50.0626 162.038 50.0626Z" fill="#F2F4FF"/>
<path d="M177.847 50.0626C180.029 50.0626 181.799 48.2937 181.799 46.1104V40.8409C181.799 38.6575 180.029 36.8887 177.847 36.8887C175.664 36.8887 173.895 38.6575 173.895 40.8409V46.1108C173.895 48.2937 175.664 50.0626 177.847 50.0626Z" fill="#F2F4FF"/>
<path d="M146.229 76.4107C148.412 76.4107 150.181 74.6418 150.181 72.4585V67.1885C150.181 65.0052 148.412 63.2363 146.229 63.2363C144.047 63.2363 142.277 65.0052 142.277 67.1885V72.4585C142.277 74.6418 144.047 76.4107 146.229 76.4107Z" fill="#F2F4FF"/>
<path d="M162.038 76.4107C164.221 76.4107 165.99 74.6418 165.99 72.4585V67.1885C165.99 65.0052 164.22 63.2363 162.038 63.2363C159.856 63.2363 158.086 65.0052 158.086 67.1885V72.4585C158.086 74.6418 159.855 76.4107 162.038 76.4107Z" fill="#F2F4FF"/>
<path d="M177.847 76.4107C180.029 76.4107 181.799 74.6418 181.799 72.4585V67.1885C181.799 65.0052 180.029 63.2363 177.847 63.2363C175.664 63.2363 173.895 65.0052 173.895 67.1885V72.4585C173.895 74.6418 175.664 76.4107 177.847 76.4107Z" fill="#F2F4FF"/>
<path d="M146.229 102.76C148.412 102.76 150.181 100.991 150.181 98.8081V93.5382C150.181 91.3548 148.412 89.5859 146.229 89.5859C144.047 89.5859 142.277 91.3548 142.277 93.5382V98.8081C142.277 100.991 144.047 102.76 146.229 102.76Z" fill="#F2F4FF"/>
<path d="M162.038 102.76C164.221 102.76 165.99 100.991 165.99 98.8081V93.5382C165.99 91.3548 164.22 89.5859 162.038 89.5859C159.856 89.5859 158.086 91.3548 158.086 93.5382V98.8081C158.086 100.991 159.855 102.76 162.038 102.76Z" fill="#F2F4FF"/>
<path d="M177.847 102.76C180.029 102.76 181.799 100.991 181.799 98.8081V93.5382C181.799 91.3548 180.029 89.5859 177.847 89.5859C175.664 89.5859 173.895 91.3548 173.895 93.5382V98.8081C173.895 100.991 175.664 102.76 177.847 102.76Z" fill="#F2F4FF"/>
<path d="M35.5702 113.299C37.753 113.299 39.5222 111.531 39.5222 109.347V104.077C39.5222 101.894 37.7526 100.125 35.5702 100.125C33.3879 100.125 31.6182 101.894 31.6182 104.077V109.347C31.6182 111.53 33.3879 113.299 35.5702 113.299Z" fill="#F2F4FF"/>
<path d="M51.3788 113.299C53.5616 113.299 55.3308 111.531 55.3308 109.347V104.077C55.3308 101.894 53.5611 100.125 51.3788 100.125C49.1965 100.125 47.4268 101.894 47.4268 104.077V109.347C47.4268 111.53 49.196 113.299 51.3788 113.299Z" fill="#F2F4FF"/>
<path d="M67.1854 113.299C69.3682 113.299 71.1375 111.531 71.1375 109.347V104.077C71.1375 101.894 69.3678 100.125 67.1854 100.125C65.0031 100.125 63.2334 101.894 63.2334 104.077V109.347C63.2334 111.53 65.0026 113.299 67.1854 113.299Z" fill="#F2F4FF"/>
<path d="M35.5702 139.649C37.753 139.649 39.5222 137.88 39.5222 135.697V130.427C39.5222 128.243 37.7526 126.475 35.5702 126.475C33.3879 126.475 31.6182 128.243 31.6182 130.427V135.697C31.6182 137.88 33.3879 139.649 35.5702 139.649Z" fill="#F2F4FF"/>
<path d="M51.3788 139.649C53.5616 139.649 55.3308 137.88 55.3308 135.697V130.427C55.3308 128.243 53.5611 126.475 51.3788 126.475C49.1965 126.475 47.4268 128.243 47.4268 130.427V135.697C47.4268 137.88 49.196 139.649 51.3788 139.649Z" fill="#F2F4FF"/>
<path d="M67.1854 139.649C69.3682 139.649 71.1375 137.88 71.1375 135.697V130.427C71.1375 128.243 69.3678 126.475 67.1854 126.475C65.0031 126.475 63.2334 128.243 63.2334 130.427V135.697C63.2334 137.88 65.0026 139.649 67.1854 139.649Z" fill="#F2F4FF"/>
<path d="M35.5702 165.998C37.753 165.998 39.5222 164.229 39.5222 162.045V156.775C39.5222 154.592 37.7526 152.823 35.5702 152.823C33.3879 152.823 31.6182 154.592 31.6182 156.775V162.045C31.6182 164.229 33.3879 165.998 35.5702 165.998Z" fill="#F2F4FF"/>
<path d="M51.3788 165.998C53.5616 165.998 55.3308 164.229 55.3308 162.045V156.775C55.3308 154.592 53.5611 152.823 51.3788 152.823C49.1965 152.823 47.4268 154.592 47.4268 156.775V162.045C47.4268 164.229 49.196 165.998 51.3788 165.998Z" fill="#F2F4FF"/>
<path d="M67.1854 165.998C69.3682 165.998 71.1375 164.229 71.1375 162.045V156.775C71.1375 154.592 69.3678 152.823 67.1854 152.823C65.0031 152.823 63.2334 154.592 63.2334 156.775V162.045C63.2334 164.229 65.0026 165.998 67.1854 165.998Z" fill="#F2F4FF"/>
<path d="M35.5702 192.346C37.753 192.346 39.5222 190.577 39.5222 188.394V183.124C39.5222 180.941 37.7526 179.172 35.5702 179.172C33.3879 179.172 31.6182 180.941 31.6182 183.124V188.394C31.6182 190.577 33.3879 192.346 35.5702 192.346Z" fill="#F2F4FF"/>
<path d="M51.3788 192.346C53.5616 192.346 55.3308 190.577 55.3308 188.394V183.124C55.3308 180.941 53.5611 179.172 51.3788 179.172C49.1965 179.172 47.4268 180.941 47.4268 183.124V188.394C47.4268 190.577 49.196 192.346 51.3788 192.346Z" fill="#F2F4FF"/>
<path d="M67.1854 192.346C69.3682 192.346 71.1375 190.577 71.1375 188.394V183.124C71.1375 180.941 69.3678 179.172 67.1854 179.172C65.0031 179.172 63.2334 180.941 63.2334 183.124V188.394C63.2334 190.577 65.0026 192.346 67.1854 192.346Z" fill="#F2F4FF"/>
<path d="M177.847 129.109C180.029 129.109 181.799 127.34 181.799 125.157V119.887C181.799 117.703 180.029 115.935 177.847 115.935C175.664 115.935 173.895 117.703 173.895 119.887V125.157C173.895 127.34 175.664 129.109 177.847 129.109Z" fill="#F2F4FF"/>
<path d="M177.847 155.458C180.029 155.458 181.799 153.689 181.799 151.505V146.235C181.799 144.052 180.029 142.283 177.847 142.283C175.664 142.283 173.895 144.052 173.895 146.235V151.505C173.895 153.688 175.664 155.458 177.847 155.458Z" fill="#F2F4FF"/>
<path d="M177.847 181.806C180.029 181.806 181.799 180.037 181.799 177.854V172.584C181.799 170.401 180.029 168.632 177.847 168.632C175.664 168.632 173.895 170.401 173.895 172.584V177.854C173.895 180.037 175.664 181.806 177.847 181.806Z" fill="#F2F4FF"/>
<path d="M177.847 208.156C180.029 208.156 181.799 206.387 181.799 204.204V198.934C181.799 196.75 180.029 194.981 177.847 194.981C175.664 194.981 173.895 196.75 173.895 198.934V204.204C173.895 206.386 175.664 208.156 177.847 208.156Z" fill="#F2F4FF"/>
<path d="M108.026 61.92C108.026 59.7366 106.257 57.9678 104.074 57.9678H72.4569C70.2741 57.9678 68.5049 59.7366 68.5049 61.92C68.5049 64.1034 70.2746 65.8722 72.4569 65.8722H104.074C106.257 65.8722 108.026 64.1034 108.026 61.92Z" fill="#F2F4FF"/>
</svg>
