<svg width="540" height="411" viewBox="0 0 540 411" fill="none" xmlns="http://www.w3.org/2000/svg">
<g opacity="0.05">
<path d="M4.60844 401.747H6.93781C6.42581 400.299 6.14442 398.742 6.14442 397.12C6.14442 393.689 7.38853 390.457 9.58594 387.959C9.34189 386.921 9.21638 385.855 9.21638 384.784C9.21638 378.753 13.0698 373.61 18.4333 371.701V208.976C18.4333 206.42 20.4967 204.349 23.0417 204.349H92.1689V159.627C92.1689 157.071 94.2323 155 96.7774 155H231.958C234.503 155 236.566 157.071 236.566 159.627V371.7C241.93 373.61 245.783 378.752 245.783 384.783C245.783 385.854 245.658 386.921 245.414 387.958C247.611 390.457 248.856 393.688 248.856 397.119C248.856 398.742 248.574 400.299 248.062 401.747H250.392C252.937 401.747 255 403.818 255 406.374C255 408.929 252.937 411 250.392 411H4.60844C2.0634 411 0 408.929 0 406.374C0 403.819 2.0634 401.747 4.60844 401.747ZM92.1689 213.602H27.6507V371.703C28.1746 371.89 28.6886 372.106 29.1866 372.357C31.0822 371.408 33.1815 370.905 35.3311 370.905C37.4812 370.905 39.5799 371.408 41.4755 372.357C43.3711 371.408 45.4699 370.905 47.6199 370.905C49.77 370.905 51.8688 371.408 53.7644 372.357C55.6599 371.408 57.7587 370.905 59.9088 370.905C62.0589 370.905 64.1577 371.408 66.0532 372.357C67.9488 371.408 70.0481 370.905 72.1976 370.905C74.3477 370.905 76.4465 371.408 78.3421 372.357C80.2377 371.408 82.3364 370.905 84.4865 370.905C86.6366 370.905 88.7354 371.408 90.6309 372.357C91.13 372.107 91.643 371.89 92.1669 371.703V213.602H92.1689ZM227.349 164.253H101.386V208.976V371.703C101.91 371.89 102.424 372.106 102.922 372.357C104.817 371.408 106.917 370.905 109.066 370.905C110.651 370.905 112.207 371.18 113.675 371.704V369.361C113.675 366.805 115.738 364.734 118.283 364.734C120.828 364.734 122.892 366.805 122.892 369.361V370.992C124.501 371.173 126.059 371.636 127.5 372.357C128.941 371.636 130.499 371.173 132.108 370.992V369.361C132.108 366.805 134.172 364.734 136.717 364.734C139.262 364.734 141.325 366.805 141.325 369.361V371.703C142.793 371.18 144.349 370.904 145.934 370.904C147.519 370.904 149.074 371.179 150.542 371.703V369.361C150.542 366.805 152.606 364.734 155.151 364.734C157.696 364.734 159.759 366.805 159.759 369.361V370.992C161.368 371.173 162.927 371.636 164.368 372.357C165.808 371.636 167.367 371.173 168.976 370.992V369.361C168.976 366.805 171.039 364.734 173.584 364.734C176.129 364.734 178.193 366.805 178.193 369.361V371.703C179.661 371.18 181.217 370.904 182.801 370.904C184.386 370.904 185.942 371.179 187.41 371.703V369.361C187.41 366.805 189.473 364.734 192.018 364.734C194.563 364.734 196.627 366.805 196.627 369.361V370.992C198.236 371.173 199.794 371.636 201.235 372.357C202.676 371.636 204.234 371.173 205.844 370.992V369.361C205.844 366.805 207.907 364.734 210.452 364.734C212.997 364.734 215.06 366.805 215.06 369.361V371.703C216.528 371.18 218.084 370.904 219.669 370.904C221.819 370.904 223.918 371.407 225.813 372.356C226.312 372.106 226.825 371.889 227.349 371.702V164.253ZM19.9588 401.747C19.9668 401.747 19.9742 401.748 19.9827 401.748H235.006C235.014 401.748 235.022 401.747 235.03 401.747C237.571 401.747 239.638 399.672 239.638 397.12C239.638 395.539 238.839 394.082 237.501 393.222C235.439 391.898 234.767 389.188 235.971 387.049C236.366 386.346 236.566 385.585 236.566 384.784C236.566 382.232 234.499 380.157 231.957 380.157C230.511 380.157 229.491 380.803 228.89 381.345C227.139 382.922 224.486 382.922 222.735 381.345C222.133 380.803 221.113 380.157 219.667 380.157C218.222 380.157 217.202 380.803 216.6 381.345C214.849 382.922 212.196 382.922 210.445 381.345C209.843 380.803 208.823 380.157 207.378 380.157C205.932 380.157 204.912 380.803 204.31 381.345C202.559 382.922 199.906 382.922 198.155 381.345C197.554 380.803 196.534 380.157 195.088 380.157C193.642 380.157 192.622 380.803 192.02 381.345C190.269 382.922 187.616 382.922 185.865 381.345C185.264 380.803 184.244 380.157 182.798 380.157C181.353 380.157 180.332 380.803 179.73 381.345C177.979 382.922 175.327 382.922 173.575 381.345C172.974 380.803 171.954 380.157 170.508 380.157C169.063 380.157 168.042 380.803 167.441 381.345C165.689 382.922 163.037 382.922 161.286 381.345C160.684 380.803 159.664 380.157 158.218 380.157C156.773 380.157 155.752 380.803 155.151 381.345C153.4 382.922 150.747 382.922 148.996 381.345C148.394 380.803 147.374 380.157 145.928 380.157C144.483 380.157 143.462 380.803 142.861 381.345C141.11 382.922 138.457 382.922 136.706 381.345C136.104 380.803 135.084 380.157 133.638 380.157C132.193 380.157 131.173 380.803 130.571 381.345C128.82 382.922 126.167 382.922 124.416 381.345C123.814 380.803 122.794 380.157 121.349 380.157C119.903 380.157 118.883 380.803 118.281 381.345C116.53 382.922 113.877 382.922 112.126 381.345C111.525 380.803 110.505 380.157 109.059 380.157C107.613 380.157 106.593 380.803 105.991 381.345C104.24 382.922 101.588 382.922 99.8364 381.345C99.2347 380.803 98.2147 380.157 96.7689 380.157C95.3235 380.157 94.3031 380.803 93.7014 381.345C91.9503 382.922 89.2977 382.922 87.5465 381.345C86.9449 380.803 85.9249 380.157 84.479 380.157C83.0337 380.157 82.0132 380.803 81.4116 381.345C79.6604 382.922 77.0078 382.922 75.2567 381.345C74.655 380.803 73.635 380.157 72.1892 380.157C70.7439 380.157 69.7233 380.803 69.1217 381.345C67.3706 382.922 64.718 382.922 62.9668 381.345C62.3652 380.803 61.3452 380.157 59.8993 380.157C58.454 380.157 57.4335 380.803 56.8318 381.345C55.0807 382.922 52.4281 382.922 50.677 381.345C50.0753 380.803 49.0553 380.157 47.6095 380.157C46.1641 380.157 45.1436 380.803 44.542 381.345C42.7908 382.922 40.1382 382.922 38.3871 381.345C37.7855 380.803 36.7655 380.157 35.3196 380.157C33.8743 380.157 32.8538 380.803 32.2521 381.345C30.501 382.922 27.8484 382.922 26.0972 381.345C25.4956 380.803 24.4756 380.157 23.0298 380.157C20.4882 380.157 18.4213 382.232 18.4213 384.784C18.4213 385.585 18.6216 386.346 19.0165 387.049C20.2208 389.188 19.5484 391.899 17.4865 393.222C16.1477 394.082 15.3484 395.539 15.3484 397.12C15.3504 399.671 17.4173 401.747 19.9588 401.747Z" fill="white"/>
<path d="M78.3427 238.276H41.4752C38.9301 238.276 36.8667 236.205 36.8667 233.65C36.8667 231.094 38.9301 229.023 41.4752 229.023H78.3427C80.8878 229.023 82.9512 231.094 82.9512 233.65C82.9512 236.206 80.8878 238.276 78.3427 238.276Z" fill="white"/>
<path d="M78.3427 262.952H41.4752C38.9301 262.952 36.8667 260.881 36.8667 258.326C36.8667 255.77 38.9301 253.699 41.4752 253.699H78.3427C80.8878 253.699 82.9512 255.77 82.9512 258.326C82.9512 260.881 80.8878 262.952 78.3427 262.952Z" fill="white"/>
<path d="M78.3427 287.626H41.4752C38.9301 287.626 36.8667 285.555 36.8667 283C36.8667 280.444 38.9301 278.373 41.4752 278.373H78.3427C80.8878 278.373 82.9512 280.444 82.9512 283C82.9512 285.555 80.8878 287.626 78.3427 287.626Z" fill="white"/>
<path d="M78.3427 312.301H41.4752C38.9301 312.301 36.8667 310.23 36.8667 307.674C36.8667 305.119 38.9301 303.048 41.4752 303.048H78.3427C80.8878 303.048 82.9512 305.119 82.9512 307.674C82.9512 310.23 80.8878 312.301 78.3427 312.301Z" fill="white"/>
<path d="M78.3427 336.976H41.4752C38.9301 336.976 36.8667 334.905 36.8667 332.349C36.8667 329.794 38.9301 327.723 41.4752 327.723H78.3427C80.8878 327.723 82.9512 329.794 82.9512 332.349C82.9512 334.905 80.8878 336.976 78.3427 336.976Z" fill="white"/>
<path d="M78.3427 361.65H41.4752C38.9301 361.65 36.8667 359.578 36.8667 357.023C36.8667 354.467 38.9301 352.396 41.4752 352.396H78.3427C80.8878 352.396 82.9512 354.467 82.9512 357.023C82.9512 359.579 80.8878 361.65 78.3427 361.65Z" fill="white"/>
<path d="M210.45 195.096C207.905 195.096 205.842 193.025 205.842 190.47V184.301C205.842 181.746 207.905 179.675 210.45 179.675C212.995 179.675 215.059 181.746 215.059 184.301V190.47C215.059 193.026 212.995 195.096 210.45 195.096Z" fill="white"/>
<path d="M192.019 195.096C189.473 195.096 187.41 193.025 187.41 190.47V184.301C187.41 181.746 189.473 179.675 192.019 179.675C194.564 179.675 196.627 181.746 196.627 184.301V190.47C196.626 193.026 194.564 195.096 192.019 195.096Z" fill="white"/>
<path d="M173.583 195.096C171.038 195.096 168.975 193.025 168.975 190.47V184.301C168.975 181.746 171.038 179.675 173.583 179.675C176.128 179.675 178.191 181.746 178.191 184.301V190.47C178.191 193.026 176.128 195.096 173.583 195.096Z" fill="white"/>
<path d="M155.149 195.096C152.604 195.096 150.541 193.025 150.541 190.47V184.301C150.541 181.746 152.604 179.675 155.149 179.675C157.694 179.675 159.758 181.746 159.758 184.301V190.47C159.758 193.026 157.694 195.096 155.149 195.096Z" fill="white"/>
<path d="M136.716 195.096C134.171 195.096 132.107 193.025 132.107 190.47V184.301C132.107 181.746 134.171 179.675 136.716 179.675C139.261 179.675 141.324 181.746 141.324 184.301V190.47C141.324 193.026 139.261 195.096 136.716 195.096Z" fill="white"/>
<path d="M118.282 195.096C115.737 195.096 113.674 193.025 113.674 190.47V184.301C113.674 181.746 115.737 179.675 118.282 179.675C120.827 179.675 122.891 181.746 122.891 184.301V190.47C122.891 193.026 120.827 195.096 118.282 195.096Z" fill="white"/>
<path d="M210.45 225.939C207.905 225.939 205.842 223.868 205.842 221.313V215.144C205.842 212.589 207.905 210.518 210.45 210.518C212.995 210.518 215.059 212.589 215.059 215.144V221.313C215.059 223.868 212.995 225.939 210.45 225.939Z" fill="white"/>
<path d="M192.019 225.939C189.473 225.939 187.41 223.868 187.41 221.313V215.144C187.41 212.589 189.473 210.518 192.019 210.518C194.564 210.518 196.627 212.589 196.627 215.144V221.313C196.626 223.868 194.564 225.939 192.019 225.939Z" fill="white"/>
<path d="M173.583 225.939C171.038 225.939 168.975 223.868 168.975 221.313V215.144C168.975 212.589 171.038 210.518 173.583 210.518C176.128 210.518 178.191 212.589 178.191 215.144V221.313C178.191 223.868 176.128 225.939 173.583 225.939Z" fill="white"/>
<path d="M155.149 225.939C152.604 225.939 150.541 223.868 150.541 221.313V215.144C150.541 212.589 152.604 210.518 155.149 210.518C157.694 210.518 159.758 212.589 159.758 215.144V221.313C159.758 223.868 157.694 225.939 155.149 225.939Z" fill="white"/>
<path d="M136.716 225.939C134.171 225.939 132.107 223.868 132.107 221.313V215.144C132.107 212.589 134.171 210.518 136.716 210.518C139.261 210.518 141.324 212.589 141.324 215.144V221.313C141.324 223.868 139.261 225.939 136.716 225.939Z" fill="white"/>
<path d="M118.282 225.939C115.737 225.939 113.674 223.868 113.674 221.313V215.144C113.674 212.589 115.737 210.518 118.282 210.518C120.827 210.518 122.891 212.589 122.891 215.144V221.313C122.891 223.868 120.827 225.939 118.282 225.939Z" fill="white"/>
<path d="M210.45 256.783C207.905 256.783 205.842 254.712 205.842 252.156V245.988C205.842 243.432 207.905 241.361 210.45 241.361C212.995 241.361 215.059 243.432 215.059 245.988V252.156C215.059 254.712 212.995 256.783 210.45 256.783Z" fill="white"/>
<path d="M192.019 256.783C189.473 256.783 187.41 254.712 187.41 252.156V245.988C187.41 243.432 189.473 241.361 192.019 241.361C194.564 241.361 196.627 243.432 196.627 245.988V252.156C196.626 254.712 194.564 256.783 192.019 256.783Z" fill="white"/>
<path d="M173.583 256.783C171.038 256.783 168.975 254.712 168.975 252.156V245.988C168.975 243.432 171.038 241.361 173.583 241.361C176.128 241.361 178.191 243.432 178.191 245.988V252.156C178.191 254.712 176.128 256.783 173.583 256.783Z" fill="white"/>
<path d="M155.149 256.783C152.604 256.783 150.541 254.712 150.541 252.156V245.988C150.541 243.432 152.604 241.361 155.149 241.361C157.694 241.361 159.758 243.432 159.758 245.988V252.156C159.758 254.712 157.694 256.783 155.149 256.783Z" fill="white"/>
<path d="M136.716 256.783C134.171 256.783 132.107 254.712 132.107 252.156V245.988C132.107 243.432 134.171 241.361 136.716 241.361C139.261 241.361 141.324 243.432 141.324 245.988V252.156C141.324 254.712 139.261 256.783 136.716 256.783Z" fill="white"/>
<path d="M118.282 256.783C115.737 256.783 113.674 254.712 113.674 252.156V245.988C113.674 243.432 115.737 241.361 118.282 241.361C120.827 241.361 122.891 243.432 122.891 245.988V252.156C122.891 254.712 120.827 256.783 118.282 256.783Z" fill="white"/>
<path d="M210.45 287.627C207.905 287.627 205.842 285.556 205.842 283V276.832C205.842 274.276 207.905 272.205 210.45 272.205C212.995 272.205 215.059 274.276 215.059 276.832V283C215.059 285.556 212.995 287.627 210.45 287.627Z" fill="white"/>
<path d="M192.019 287.627C189.473 287.627 187.41 285.556 187.41 283V276.832C187.41 274.276 189.473 272.205 192.019 272.205C194.564 272.205 196.627 274.276 196.627 276.832V283C196.626 285.556 194.564 287.627 192.019 287.627Z" fill="white"/>
<path d="M173.583 287.627C171.038 287.627 168.975 285.556 168.975 283V276.832C168.975 274.276 171.038 272.205 173.583 272.205C176.128 272.205 178.191 274.276 178.191 276.832V283C178.191 285.556 176.128 287.627 173.583 287.627Z" fill="white"/>
<path d="M155.149 287.627C152.604 287.627 150.541 285.556 150.541 283V276.832C150.541 274.276 152.604 272.205 155.149 272.205C157.694 272.205 159.758 274.276 159.758 276.832V283C159.758 285.556 157.694 287.627 155.149 287.627Z" fill="white"/>
<path d="M136.716 287.627C134.171 287.627 132.107 285.556 132.107 283V276.832C132.107 274.276 134.171 272.205 136.716 272.205C139.261 272.205 141.324 274.276 141.324 276.832V283C141.324 285.556 139.261 287.627 136.716 287.627Z" fill="white"/>
<path d="M118.282 287.627C115.737 287.627 113.674 285.556 113.674 283V276.832C113.674 274.276 115.737 272.205 118.282 272.205C120.827 272.205 122.891 274.276 122.891 276.832V283C122.891 285.556 120.827 287.627 118.282 287.627Z" fill="white"/>
<path d="M210.45 318.469C207.905 318.469 205.842 316.398 205.842 313.843V307.674C205.842 305.119 207.905 303.048 210.45 303.048C212.995 303.048 215.059 305.119 215.059 307.674V313.843C215.059 316.399 212.995 318.469 210.45 318.469Z" fill="white"/>
<path d="M192.019 318.469C189.473 318.469 187.41 316.398 187.41 313.843V307.674C187.41 305.119 189.473 303.048 192.019 303.048C194.564 303.048 196.627 305.119 196.627 307.674V313.843C196.626 316.399 194.564 318.469 192.019 318.469Z" fill="white"/>
<path d="M173.583 318.469C171.038 318.469 168.975 316.398 168.975 313.843V307.674C168.975 305.119 171.038 303.048 173.583 303.048C176.128 303.048 178.191 305.119 178.191 307.674V313.843C178.191 316.399 176.128 318.469 173.583 318.469Z" fill="white"/>
<path d="M155.149 318.469C152.604 318.469 150.541 316.398 150.541 313.843V307.674C150.541 305.119 152.604 303.048 155.149 303.048C157.694 303.048 159.758 305.119 159.758 307.674V313.843C159.758 316.399 157.694 318.469 155.149 318.469Z" fill="white"/>
<path d="M136.716 318.469C134.171 318.469 132.107 316.398 132.107 313.843V307.674C132.107 305.119 134.171 303.048 136.716 303.048C139.261 303.048 141.324 305.119 141.324 307.674V313.843C141.324 316.399 139.261 318.469 136.716 318.469Z" fill="white"/>
<path d="M118.282 318.469C115.737 318.469 113.674 316.398 113.674 313.843V307.674C113.674 305.119 115.737 303.048 118.282 303.048C120.827 303.048 122.891 305.119 122.891 307.674V313.843C122.891 316.399 120.827 318.469 118.282 318.469Z" fill="white"/>
<path d="M210.45 349.313C207.905 349.313 205.842 347.242 205.842 344.687V338.518C205.842 335.963 207.905 333.892 210.45 333.892C212.995 333.892 215.059 335.963 215.059 338.518V344.687C215.059 347.242 212.995 349.313 210.45 349.313Z" fill="white"/>
<path d="M192.019 349.313C189.473 349.313 187.41 347.242 187.41 344.687V338.518C187.41 335.963 189.473 333.892 192.019 333.892C194.564 333.892 196.627 335.963 196.627 338.518V344.687C196.626 347.242 194.564 349.313 192.019 349.313Z" fill="white"/>
<path d="M173.583 349.313C171.038 349.313 168.975 347.242 168.975 344.687V338.518C168.975 335.963 171.038 333.892 173.583 333.892C176.128 333.892 178.191 335.963 178.191 338.518V344.687C178.191 347.242 176.128 349.313 173.583 349.313Z" fill="white"/>
<path d="M155.149 349.313C152.604 349.313 150.541 347.242 150.541 344.687V338.518C150.541 335.963 152.604 333.892 155.149 333.892C157.694 333.892 159.758 335.963 159.758 338.518V344.687C159.758 347.242 157.694 349.313 155.149 349.313Z" fill="white"/>
<path d="M136.716 349.313C134.171 349.313 132.107 347.242 132.107 344.687V338.518C132.107 335.963 134.171 333.892 136.716 333.892C139.261 333.892 141.324 335.963 141.324 338.518V344.687C141.324 347.242 139.261 349.313 136.716 349.313Z" fill="white"/>
<path d="M118.282 349.313C115.737 349.313 113.674 347.242 113.674 344.687V338.518C113.674 335.963 115.737 333.892 118.282 333.892C120.827 333.892 122.891 335.963 122.891 338.518V344.687C122.891 347.242 120.827 349.313 118.282 349.313Z" fill="white"/>
</g>
<g opacity="0.05">
<path d="M534.445 320.809H525.185V27.9775C525.185 24.8864 522.698 22.3821 519.63 22.3821H415.926C412.858 22.3821 410.371 24.8864 410.371 27.9775V52.2245H399.26V27.9775C399.26 24.8864 396.772 22.3821 393.704 22.3821H369.63V5.59537C369.63 2.50427 367.142 0 364.075 0C361.007 0 358.519 2.50427 358.519 5.59537V22.3821H334.445C331.377 22.3821 328.89 24.8864 328.89 27.9775V52.2245H312.223C309.155 52.2245 306.668 54.7288 306.668 57.8199V104.449H260.371C257.303 104.449 254.816 106.953 254.816 110.044V320.809H245.555C242.487 320.809 240 323.313 240 326.404C240 329.495 242.488 332 245.555 332H534.445C537.513 332 540 329.496 540 326.405C540 323.314 537.512 320.809 534.445 320.809ZM340 33.5729H388.148V52.2245H340V33.5729ZM321.482 320.809H317.778V311.483C317.778 308.392 315.29 305.888 312.222 305.888C309.155 305.888 306.667 308.392 306.667 311.483V320.809H302.963V302.158H321.482V320.809ZM358.518 177.191V186.817V320.809H332.592V296.562C332.592 293.471 330.105 290.967 327.037 290.967H297.408C294.339 290.967 291.852 293.471 291.852 296.562V320.809H265.926V115.64H358.518V177.191ZM364.074 104.45H317.778V63.4159H410.37V171.595H369.63V152.944H386.297C389.365 152.944 391.852 150.439 391.852 147.348C391.852 144.257 389.365 141.753 386.297 141.753H369.63V123.101H386.297C389.365 123.101 391.852 120.597 391.852 117.506C391.852 114.415 389.365 111.911 386.297 111.911H369.63V110.046C369.63 106.954 367.142 104.45 364.074 104.45ZM462.222 320.809H369.63V186.817V182.787H462.222V320.809ZM514.074 320.809H473.333V177.191V169.73C473.333 166.639 470.845 164.134 467.778 164.134C464.71 164.134 462.222 166.639 462.222 169.73V171.595H451.111V169.73C451.111 166.639 448.624 164.134 445.556 164.134C442.488 164.134 440.001 166.639 440.001 169.73V171.595H421.482V57.8205V33.5729H514.075V320.809H514.074Z" fill="white"/>
<path d="M393.702 309.619C396.77 309.619 399.257 307.114 399.257 304.024V199.575C399.257 196.484 396.77 193.979 393.702 193.979C390.634 193.979 388.146 196.484 388.146 199.575V304.025C388.146 307.114 390.634 309.619 393.702 309.619Z" fill="white"/>
<path d="M415.927 309.619C418.995 309.619 421.482 307.114 421.482 304.024V199.575C421.482 196.484 418.994 193.979 415.927 193.979C412.859 193.979 410.371 196.484 410.371 199.575V304.025C410.37 307.114 412.858 309.619 415.927 309.619Z" fill="white"/>
<path d="M438.147 309.619C441.216 309.619 443.703 307.114 443.703 304.024V199.575C443.703 196.484 441.215 193.979 438.147 193.979C435.079 193.979 432.592 196.484 432.592 199.575V304.025C432.592 307.114 435.079 309.619 438.147 309.619Z" fill="white"/>
<path d="M445.557 70.8756C448.626 70.8756 451.113 68.3714 451.113 65.2803V57.82C451.113 54.7289 448.625 52.2246 445.557 52.2246C442.49 52.2246 440.002 54.7289 440.002 57.82V65.2809C440.002 68.3714 442.489 70.8756 445.557 70.8756Z" fill="white"/>
<path d="M467.78 70.8756C470.848 70.8756 473.335 68.3714 473.335 65.2803V57.82C473.335 54.7289 470.848 52.2246 467.78 52.2246C464.712 52.2246 462.225 54.7289 462.225 57.82V65.2809C462.225 68.3714 464.712 70.8756 467.78 70.8756Z" fill="white"/>
<path d="M490.003 70.8756C493.071 70.8756 495.558 68.3714 495.558 65.2803V57.82C495.558 54.7289 493.07 52.2246 490.003 52.2246C486.935 52.2246 484.447 54.7289 484.447 57.82V65.2809C484.447 68.3714 486.934 70.8756 490.003 70.8756Z" fill="white"/>
<path d="M445.557 108.179C448.626 108.179 451.113 105.675 451.113 102.584V95.1227C451.113 92.0316 448.625 89.5273 445.557 89.5273C442.49 89.5273 440.002 92.0316 440.002 95.1227V102.584C440.002 105.675 442.489 108.179 445.557 108.179Z" fill="white"/>
<path d="M467.78 108.179C470.848 108.179 473.335 105.675 473.335 102.584V95.1227C473.335 92.0316 470.848 89.5273 467.78 89.5273C464.712 89.5273 462.225 92.0316 462.225 95.1227V102.584C462.225 105.675 464.712 108.179 467.78 108.179Z" fill="white"/>
<path d="M490.003 108.179C493.071 108.179 495.558 105.675 495.558 102.584V95.1227C495.558 92.0316 493.07 89.5273 490.003 89.5273C486.935 89.5273 484.447 92.0316 484.447 95.1227V102.584C484.447 105.675 486.934 108.179 490.003 108.179Z" fill="white"/>
<path d="M445.557 145.484C448.626 145.484 451.113 142.979 451.113 139.888V132.427C451.113 129.336 448.625 126.832 445.557 126.832C442.49 126.832 440.002 129.336 440.002 132.427V139.888C440.002 142.979 442.489 145.484 445.557 145.484Z" fill="white"/>
<path d="M467.78 145.484C470.848 145.484 473.335 142.979 473.335 139.888V132.427C473.335 129.336 470.848 126.832 467.78 126.832C464.712 126.832 462.225 129.336 462.225 132.427V139.888C462.225 142.979 464.712 145.484 467.78 145.484Z" fill="white"/>
<path d="M490.003 145.484C493.071 145.484 495.558 142.979 495.558 139.888V132.427C495.558 129.336 493.07 126.832 490.003 126.832C486.935 126.832 484.447 129.336 484.447 132.427V139.888C484.447 142.979 486.934 145.484 490.003 145.484Z" fill="white"/>
<path d="M290.001 160.405C293.069 160.405 295.556 157.9 295.556 154.809V147.348C295.556 144.257 293.068 141.753 290.001 141.753C286.933 141.753 284.445 144.257 284.445 147.348V154.809C284.445 157.9 286.933 160.405 290.001 160.405Z" fill="white"/>
<path d="M312.223 160.405C315.292 160.405 317.779 157.9 317.779 154.809V147.348C317.779 144.257 315.291 141.753 312.223 141.753C309.156 141.753 306.668 144.257 306.668 147.348V154.809C306.668 157.9 309.155 160.405 312.223 160.405Z" fill="white"/>
<path d="M334.442 160.405C337.511 160.405 339.998 157.9 339.998 154.809V147.348C339.998 144.257 337.51 141.753 334.442 141.753C331.374 141.753 328.887 144.257 328.887 147.348V154.809C328.887 157.9 331.374 160.405 334.442 160.405Z" fill="white"/>
<path d="M290.001 197.707C293.069 197.707 295.556 195.203 295.556 192.112V184.651C295.556 181.56 293.068 179.056 290.001 179.056C286.933 179.056 284.445 181.56 284.445 184.651V192.112C284.445 195.202 286.933 197.707 290.001 197.707Z" fill="white"/>
<path d="M312.223 197.707C315.292 197.707 317.779 195.203 317.779 192.112V184.651C317.779 181.56 315.291 179.056 312.223 179.056C309.156 179.056 306.668 181.56 306.668 184.651V192.112C306.668 195.202 309.155 197.707 312.223 197.707Z" fill="white"/>
<path d="M334.442 197.707C337.511 197.707 339.998 195.203 339.998 192.112V184.651C339.998 181.56 337.51 179.056 334.442 179.056C331.374 179.056 328.887 181.56 328.887 184.651V192.112C328.887 195.202 331.374 197.707 334.442 197.707Z" fill="white"/>
<path d="M290.001 235.011C293.069 235.011 295.556 232.507 295.556 229.416V221.955C295.556 218.864 293.068 216.359 290.001 216.359C286.933 216.359 284.445 218.864 284.445 221.955V229.416C284.445 232.507 286.933 235.011 290.001 235.011Z" fill="white"/>
<path d="M312.223 235.011C315.292 235.011 317.779 232.507 317.779 229.416V221.955C317.779 218.864 315.291 216.359 312.223 216.359C309.156 216.359 306.668 218.864 306.668 221.955V229.416C306.668 232.507 309.155 235.011 312.223 235.011Z" fill="white"/>
<path d="M334.442 235.011C337.511 235.011 339.998 232.507 339.998 229.416V221.955C339.998 218.864 337.51 216.359 334.442 216.359C331.374 216.359 328.887 218.864 328.887 221.955V229.416C328.887 232.507 331.374 235.011 334.442 235.011Z" fill="white"/>
<path d="M290.001 272.315C293.069 272.315 295.556 269.81 295.556 266.719V259.258C295.556 256.167 293.068 253.663 290.001 253.663C286.933 253.663 284.445 256.167 284.445 259.258V266.719C284.445 269.81 286.933 272.315 290.001 272.315Z" fill="white"/>
<path d="M312.223 272.315C315.292 272.315 317.779 269.81 317.779 266.719V259.258C317.779 256.167 315.291 253.663 312.223 253.663C309.156 253.663 306.668 256.167 306.668 259.258V266.719C306.668 269.81 309.155 272.315 312.223 272.315Z" fill="white"/>
<path d="M334.442 272.315C337.511 272.315 339.998 269.81 339.998 266.719V259.258C339.998 256.167 337.51 253.663 334.442 253.663C331.374 253.663 328.887 256.167 328.887 259.258V266.719C328.887 269.81 331.374 272.315 334.442 272.315Z" fill="white"/>
<path d="M490.003 182.786C493.071 182.786 495.558 180.282 495.558 177.191V169.73C495.558 166.639 493.07 164.135 490.003 164.135C486.935 164.135 484.447 166.639 484.447 169.73V177.191C484.447 180.282 486.934 182.786 490.003 182.786Z" fill="white"/>
<path d="M490.003 220.09C493.071 220.09 495.558 217.586 495.558 214.495V207.034C495.558 203.943 493.07 201.438 490.003 201.438C486.935 201.438 484.447 203.943 484.447 207.034V214.495C484.447 217.585 486.934 220.09 490.003 220.09Z" fill="white"/>
<path d="M490.003 257.393C493.071 257.393 495.558 254.889 495.558 251.798V244.337C495.558 241.245 493.07 238.741 490.003 238.741C486.935 238.741 484.447 241.245 484.447 244.337V251.798C484.447 254.888 486.934 257.393 490.003 257.393Z" fill="white"/>
<path d="M490.003 294.697C493.071 294.697 495.558 292.192 495.558 289.101V281.64C495.558 278.549 493.07 276.045 490.003 276.045C486.935 276.045 484.447 278.549 484.447 281.64V289.101C484.447 292.192 486.934 294.697 490.003 294.697Z" fill="white"/>
<path d="M391.854 87.6627C391.854 84.5716 389.367 82.0674 386.299 82.0674H341.854C338.786 82.0674 336.299 84.5716 336.299 87.6627C336.299 90.7538 338.786 93.2581 341.854 93.2581H386.299C389.367 93.2581 391.854 90.7538 391.854 87.6627Z" fill="white"/>
</g>
</svg>
